<svg id="a13f47c1-e57c-47e9-9bd2-fde0fcae1f07" data-name="Layer 1" xmlns="http://www.w3.org/2000/svg" viewBox="0 0 440 169.4"><title>df-Logo-color-horizontal</title><path d="M208.92,39.37a20.85,20.85,0,0,1,8.32,1.91V15.88a1.71,1.71,0,0,1,1.65-1.65h5a1.7,1.7,0,0,1,1.64,1.65V73.26a1.7,1.7,0,0,1-1.64,1.65h-2.6c-.78,0-1.31-.61-1.56-1.47l-.7-2.52a15.49,15.49,0,0,1-11,4.86c-9.19,0-16.21-8.24-16.21-18.21C191.84,47.43,199.3,39.37,208.92,39.37Zm.17,28.95a9.35,9.35,0,0,0,8.24-5.2V49a14.41,14.41,0,0,0-7.54-2.08c-5.81,0-9.89,4.77-9.89,10.66S203.55,68.32,209.09,68.32Z" fill="#414042"/><path d="M251.65,39.37a15.61,15.61,0,0,1,16,16,20.62,20.62,0,0,1-.17,2.34,1.6,1.6,0,0,1-1.56,1.47H242.29a10,10,0,0,0,10,9.28A14.73,14.73,0,0,0,260,66c1-.6,1.65-1,2.35-.09l2.42,3.3a1.34,1.34,0,0,1-.17,2.25,19.89,19.89,0,0,1-12.83,4.34c-10.49,0-17.42-8.24-17.42-18.21C234.32,47.78,241.25,39.37,251.65,39.37Zm7.89,14.39a8.21,8.21,0,0,0-8-7.72,8.78,8.78,0,0,0-8.85,7.72Z" fill="#414042"/><path d="M271.24,42.23c-.52-1.13,0-2,1.3-2h5.12a1.6,1.6,0,0,1,1.56.95l9,20.46h.09l9.36-20.46c.43-.95,1.39-.95,2.34-.95h4c1.3,0,1.82.86,1.3,2L290,74.91a1.53,1.53,0,0,1-1.47.87h-.43a1.56,1.56,0,0,1-1.48-.87Z" fill="#414042"/><path d="M314.58,47.43h-4.07a1.64,1.64,0,0,1-1.65-1.65v-3.9a1.59,1.59,0,0,1,1.65-1.64h4.07V29.49c0-10.75,6.42-16.13,14.74-16.13a15.56,15.56,0,0,1,9.88,3.47,1.62,1.62,0,0,1,.35,2l-2.17,3.9c-.43.78-1.3.86-2.17.26a11.77,11.77,0,0,0-5.72-2.08c-3.81,0-6.5,2.77-6.5,8.58V40.24h9.36A1.59,1.59,0,0,1,334,41.88v3.9a1.64,1.64,0,0,1-1.65,1.65H323V73.26a1.71,1.71,0,0,1-1.65,1.65h-5.11a1.71,1.71,0,0,1-1.65-1.65Z" fill="#414042"/><path d="M355.76,39.37a15.61,15.61,0,0,1,15.95,16,20.65,20.65,0,0,1-.18,2.34A1.6,1.6,0,0,1,370,59.22H346.39a10,10,0,0,0,10,9.28A14.8,14.8,0,0,0,364.08,66c1-.6,1.64-1,2.34-.09l2.42,3.3a1.34,1.34,0,0,1-.17,2.25,19.89,19.89,0,0,1-12.83,4.34c-10.49,0-17.42-8.24-17.42-18.21C338.42,47.78,345.35,39.37,355.76,39.37Zm7.88,14.39a8.2,8.2,0,0,0-8-7.72,8.77,8.77,0,0,0-8.84,7.72Z" fill="#414042"/><path d="M377.94,70.4,379.76,67a1.5,1.5,0,0,1,2.17-.43A18,18,0,0,0,390,68.84c2.6,0,4.25-1,4.25-3,0-2.34-1.91-3.46-6.67-5.63-5.38-2.34-9.89-5.63-9.89-11.36,0-4.33,3.56-9.53,11.88-9.53a19.44,19.44,0,0,1,10.23,2.69,1.93,1.93,0,0,1,.69,2.51l-1.56,3a1.81,1.81,0,0,1-2.25.69,19.86,19.86,0,0,0-7.11-1.82c-2.95,0-3.9,1.3-3.9,2.6,0,2.26,2.17,3.21,5.55,4.68,6.32,2.78,11.53,5.46,11.53,12,0,5.38-5.12,10.15-12.83,10.15-5.81,0-9.63-2.08-11.45-3.56A1.46,1.46,0,0,1,377.94,70.4Z" fill="#414042"/><path d="M413.31,47.43h-3.64A1.64,1.64,0,0,1,408,45.78v-3.9a1.59,1.59,0,0,1,1.65-1.64h3.64V30.61A1.7,1.7,0,0,1,415,29l4.94-.09a1.63,1.63,0,0,1,1.56,1.65v9.71h8.84A1.59,1.59,0,0,1,432,41.88v3.9a1.65,1.65,0,0,1-1.65,1.65h-8.84V64.59c0,3,1.13,3.47,2.77,3.47a14.14,14.14,0,0,0,5.29-1.56,1.29,1.29,0,0,1,2,.78l1.56,3.82a1.43,1.43,0,0,1-.78,2.08,26.54,26.54,0,0,1-10.14,2.6c-6.85,0-8.84-4.16-8.84-10.32Z" fill="#414042"/><path d="M202.86,89.84a.6.6,0,0,1,.53-.45h.48a.59.59,0,0,1,.5.33l6.21,15.17h.12l6.17-15.17a.57.57,0,0,1,.51-.33h.47a.61.61,0,0,1,.54.45l3.65,20a.51.51,0,0,1-.53.69h-1.93a.62.62,0,0,1-.57-.42l-2.2-13.27h-.08l-5.35,13.66a.51.51,0,0,1-.5.32h-.54a.53.53,0,0,1-.5-.32l-5.38-13.66h-.12l-2.13,13.27a.58.58,0,0,1-.54.42h-1.93a.54.54,0,0,1-.56-.69Z" fill="#414042"/><path d="M223.62,109.7l9.11-20a.7.7,0,0,1,.51-.33h.3a.7.7,0,0,1,.5.33l9.06,20a.53.53,0,0,1-.51.78h-1.87A.69.69,0,0,1,240,110L238.2,106h-9.71c-.6,1.37-1.22,2.7-1.81,4.07a.75.75,0,0,1-.69.45h-1.87A.53.53,0,0,1,223.62,109.7Zm13.45-6.29-3.65-8.14h-.15l-3.62,8.14Z" fill="#414042"/><path d="M246.07,90.25a.56.56,0,0,1,.53-.56h6.83a10.4,10.4,0,1,1,0,20.79H246.6a.56.56,0,0,1-.53-.57Zm7,17.4a7.57,7.57,0,0,0,0-15.14H249.1v15.14Z" fill="#414042"/><path d="M268.13,90.25a.59.59,0,0,1,.57-.56h2a.59.59,0,0,1,.56.56v19.66a.59.59,0,0,1-.56.57h-2a.59.59,0,0,1-.57-.57Z" fill="#414042"/><path d="M275.65,107.48c.26-.39.5-.83.77-1.22a.67.67,0,0,1,1-.24c.18.15,2.46,2,4.75,2,2.05,0,3.35-1.25,3.35-2.76,0-1.78-1.54-2.91-4.48-4.13s-5.4-2.85-5.4-6.29c0-2.32,1.78-5.5,6.5-5.5a10,10,0,0,1,5.49,1.76.69.69,0,0,1,.18,1c-.24.36-.5.78-.74,1.13a.7.7,0,0,1-1,.3,9.16,9.16,0,0,0-4-1.48c-2.49,0-3.35,1.57-3.35,2.67,0,1.69,1.3,2.73,3.77,3.74,3.44,1.39,6.38,3,6.38,6.65,0,3.09-2.76,5.61-6.62,5.61a9.63,9.63,0,0,1-6.38-2.34C275.56,108.19,275.35,108,275.65,107.48Z" fill="#414042"/><path d="M302.08,89.39a10.69,10.69,0,1,1-10.66,10.72A10.68,10.68,0,0,1,302.08,89.39Zm0,18.41a7.72,7.72,0,1,0-7.7-7.69A7.72,7.72,0,0,0,302.08,107.8Z" fill="#414042"/><path d="M317,89.93a.56.56,0,0,1,.57-.54h.74l12.89,14.91h0v-14a.57.57,0,0,1,.56-.56h1.9a.59.59,0,0,1,.57.56v20a.56.56,0,0,1-.57.53h-.77L320,95.45h0v14.46a.56.56,0,0,1-.56.57h-1.87a.59.59,0,0,1-.57-.57Z" fill="#414042"/><path d="M340.39,106.65c1.1,0,2.46.74,2.46,3.29a7.66,7.66,0,0,1-2.94,5.94c-.27.24-.5.24-.71,0l-.45-.45c-.17-.17-.14-.5.15-.74a5.47,5.47,0,0,0,2.11-4,3.3,3.3,0,0,1-.74.12,2.07,2.07,0,0,1-2-2A2.12,2.12,0,0,1,340.39,106.65Z" fill="#414042"/><path d="M351.64,90.4a.52.52,0,0,1,.54-.71h2a.61.61,0,0,1,.53.42l3.59,13.63h.12l4.84-14a.54.54,0,0,1,.51-.33h.53a.54.54,0,0,1,.51.33l4.9,14h.11l3.54-13.63a.6.6,0,0,1,.53-.42h2a.52.52,0,0,1,.54.71l-5.62,20a.56.56,0,0,1-.53.41h-.47a.58.58,0,0,1-.51-.32l-5.23-14.76h-.14l-5.14,14.76a.58.58,0,0,1-.51.32h-.47a.58.58,0,0,1-.54-.41Z" fill="#414042"/><path d="M380.18,90.25a.59.59,0,0,1,.57-.56h2a.59.59,0,0,1,.56.56v19.66a.59.59,0,0,1-.56.57h-2a.59.59,0,0,1-.57-.57Z" fill="#414042"/><path d="M9,115.19l.22,1.33Z" fill="#3c92d0"/><path d="M151.1,29.51c-1.13,2.63-2.93,4.84-4.44,7.23-1.27,2-3.18,3.89-2.42,6.69.15.57-.29.9-.78,1-4.46,1.18-7.24,4.82-10.77,7.34a4.15,4.15,0,0,1-2.48,1c-1.84-.16-2.89.91-4.06,2-.3.27-.89.63-1.13.51-2.76-1.35-3.8,1.05-5.15,2.43-2,2.1-4.11,3.94-7.26,3.94-.66,0-1.32.31-1.73-.53a2.35,2.35,0,0,1,.24-2.14c.22-.56,1.69-.91.72-1.53s-2.47-.87-3.16.46c-1.35,2.56-3.47,4.31-5.6,6.12-1,.88-2,1.71-3.5,1.11-.9-.37-.55-1.29-.6-1.88-.13-1.3,1-2,1.92-2.67A17.41,17.41,0,0,0,103,59.12c.56-.62,2.33-1,1.64-1.71a5.21,5.21,0,0,0-4.86-1.83c-1.25.3-1.66,1.35-1.77,2.55-.08.86-.2,1.73-.35,2.58S97.06,62.4,96,62.4s-1.33-1-1.59-1.81a6.68,6.68,0,0,1-.28-2.48c.16-2,.1-3.45-2.7-2.92-1.14.21-2-1.13-1.6-2.32A81.41,81.41,0,0,0,93.58,27.3c0-3.24.17-6.78,3.44-8.95.58-.38.42-1,.32-1.54-.69-3.73,1.88-6.12,3.79-8.64,1-1.26,2.81-1.67,4.54-1.68a13.18,13.18,0,0,1-1.13,1.93c-.35.43-.42.79-.13,1.16a5.24,5.24,0,0,0,1,.8c.16-.34.32-.69.49-1,.08-.17.2-.32.3-.49a5.22,5.22,0,0,0,.18.56c.55,1.24,2.24,2.32,2.74,1.77,1.4-1.54,2.5-.18,3.5.05a9.48,9.48,0,0,1,3.73,2.11c.85.71,1.12,2.05,2.32,2.5-.89,1.74,0,3,1.16,4.16,1.43,1.46,3.61,2.29,3.82,4.72.68-.33.49,1.92,1.83.51.42-.45,3.23-1,3.31.83.06,1.31.87,2.07,1,3.17-.37.78-1.39,1.14-1.37,2.17-.69,0-1.59.05-1.72.78-.28,1.55-2.71,1.31-2.48,3.17-.64-.22-1.68-.78-1.85-.58a2.87,2.87,0,0,0-.22,3.13,1.53,1.53,0,0,0,2.24.72c.9-.39,1.85-.68,2.72-1.11.64-.31,1.61-.22,1.81-1.16.48-2.25.9-4.52,1.35-6.78.64-.8,1.14,1.13,1.5.19a1.66,1.66,0,0,0-1.05-2.31c-.29-.11.19-1.94-.37-2.91.56,1.06,1.68,0,2.25.53a2.15,2.15,0,0,0,2.37.47c.84-.34.37-.92-.18-1.3.17-.2.31-.46.52-.57s.4.05.6.09c-.2,1.07,1,.9,1.36,1.52.13.23.63.5.75.43.43-.28-.17-.54-.14-.75.11-.67-.24-1.47.5-2,.1-.07.46,0,.46,0-.13,2,.55,1.28,1.29.41h0c-.14.4-.52,1-.4,1.15.56.53.52-.41.91-.48s.4.22.33.48c-.25.85-.4,1.91.55,2.12.42.09,1.12-1.11,1.67-1.74.08-.08.06-.26.09-.39a2.69,2.69,0,0,0,.16.29c1,1.42,3.36.1,4,2.09l.32-.34.6-.58c.1.43.67.62.5,1.24-.39,1.42.8,1.24,1.35.95a1.51,1.51,0,0,1,1.5.1l-.17.31c-.31.08-.75.07-.89.27S150.77,29.44,151.1,29.51ZM139.78,26s-.07,0-.09,0a.18.18,0,0,0,0,.1l.15,0Z" fill="#ec432c"/><path d="M99.83,69.8c.92-2.52,3.31-3.1,5.43-3.6,6.69-1.58,13.43-.33,20.18-.11,5.67.18,10.9,2.18,16.41,2.87,1.19.15,2.41.07,3.62.1.12.8,1.75.35,1.35,1.6h0a6.76,6.76,0,0,1,3.37,3.76c.15.43.53.72.66,1,.86,2.11,3.83,2,4.45,4.56.3,1.25,1.89,2.27,3,3.19,1.42,1.12.26,3.92,3,4.18,2.08.19,3,2.52,5,3.09.5.15.63.41.84.94.85,2.07,2.56,3.49,4.23,4.9-.7,2.69.22,5.06,1.38,7.42.7,1.42-1.61,6.32-3.21,7.13-2.65,1.33-5.13,3.16-7.92,4-5.86,1.74-11.21,5.7-17.88,4.07-7.77-1.89-13.94-5.65-16.42-13.72-1.8-5.85-4.47-11.51-4.15-17.86A21.53,21.53,0,0,1,124,81c1.08-3-.36-3.84-3.08-4.31C117,76,113.25,74.76,109.37,74a34.17,34.17,0,0,0-5.46-.22l.4-.27-.18-.23-.21.52h-.31a4,4,0,0,1-.34-.23l-.08-.08c-.37-.24-1-.46-1.07-.72-.2-2.54-.17-2.54-2.15-2.32-.1,0-.23-.24-.34-.37a.5.5,0,0,1,.15-.14A.08.08,0,0,0,99.83,69.8Zm43.64,37.77c-.16.15-.48.33-.46.43.45,2.12-.46,2.75-2.43,2.31-.1,0-.42.43-.4.45.46.51.95,1,1.45,1.46,0,0,.35-.14.34-.16-.4-1.57,1.32.32,1.2-.75.19.27.37.56.57.82a2.31,2.31,0,0,0,2.2.69c.36,0,.34-1-.34-1.48-.24-.17,0-.93,0-1.43a3.28,3.28,0,0,0,.7.65c.8.38,1.44,1.87,2.53.43.13-.18-.22-.75.35-.63s.51.43.23.84-.1.59.31.69c.25.07.62,0,.43-.25-.51-.78.67-2-.23-2.28-1.42-.45-2.92-1.07-4.48-.64-.35.09-.5.78-1,.2-.38-.41-1.28-.45-.9-1.36l.36-.21-.14-.14Zm.24-3.13.07.32.1-.06-.18-.24c.07-.48-.76-1.52.53-1.25s1.41-.6,1.63-1.14.42-1.89,0-2.24c-1.33-1.24-1.87-2.28-.46-3.85.32-.36-.05-1.34-.12-2,0,0-.12-.07-.19-.1-.08.48-.17,1-.23,1.44-.22,1.57-2.16,2-2.32,3.64-.19-.1-.36-.27-.55-.29-.48,0-1.2-.22-1.4,0-.64.78.49.53.63.87a2.65,2.65,0,0,1,.22,1.11c0,.3-.36.38-.6.55-1.15.82-1-.47-1.49-.79l-.1-.06.11,0c-.26.66-.51,1.31-.77,2-.16.41-.33.82-.49,1.22,0-.48,0-1,.05-1.45s0-.87.05-1.31c-.09,0-.2,0-.26.1-1.19,1.12-2.4,2.15-4.21,1.38-.16.6-1.18-.22-1.26.89a6.08,6.08,0,0,0,.4,2,3.63,3.63,0,0,0-.8.14c-.37.16-.37.49,0,.57.57.11,1.27,1.45,1.8-.25.16-.5,1.29-1.51,2.38-.09.34.45-1.27,2.54,1,1.47a.59.59,0,0,1,0,.23c-.72,1.58,1.4,1.73,1.47,2.91.13-.06.39-.12.38-.16C138.88,106.7,143.49,107.37,143.71,104.44Zm.5-9.45c-.09-.63-.05-1.18-.61-1.21-.32,0-.93.1-.81.64a6.91,6.91,0,0,0,.7,1.52Zm1,12.69-.56-.49a2.84,2.84,0,0,0-.4.66c0,.09.22.26.33.4Zm1.15-14.88c-.27-.16-.4-.29-.55-.31s-.24.13-.36.2c.1.15.18.38.31.41S146.11,93,146.41,92.8Zm-3.93,16.63c.1-.13.21-.21.21-.29s-.1-.17-.16-.26c-.07.07-.19.13-.2.22S142.41,109.28,142.48,109.43Zm-.63-1.72c0-.06.08-.14.06-.18s-.11-.06-.17-.09-.09.14-.07.18S141.78,107.68,141.85,107.71Zm28.61-11.07a1.2,1.2,0,0,0,.14-.28s-.13-.11-.17-.1a1.4,1.4,0,0,0-.26.16Z" fill="#009e55"/><path d="M100.25,86.74c1.5,2.9,3.69,5.49,3.74,9,0,1.92-.46,4,1.19,5.65l-.8.2c-.36.09-1.13,2.89-.83,3,1.92.85,1,3.07,2.06,4.33.21.24-.21.46-.61.41-.16,0-.35.32-.52.5.14.12.31.37.41.34.84-.22,1.1.17,1.31.94s-.59.71-.87.87c-1.7,1-2.09,2.33-.94,3.61a.72.72,0,0,1,0,1c-.58.93,1,1.66.29,2.64.83.61.75,2,2.31,2.12,1.19.12,1.54,1.69,1.94,2.82.11.31.34.79.22.94-.3.35-.6,0-.9-.21a.65.65,0,0,0-.58.2.59.59,0,0,0,.16.58c.83.39,1.26,1.41,2.3,1.43-2.32,5.73-.31,12.18-2.91,17.86-.91,2-.53,3.59,0,5.71.71,2.72-1.05,5.69-2.74,8.12-2.22,3.2-4.56,6.34-8.46,7.75a2.15,2.15,0,0,1-2.41-.46c-2.3-2.29-5.55-1.93-8.26-3.05-4.87-2-8.86-5.09-11.12-9.89-3-6.34-5.76-12.79-6.16-19.94-.12-2.23.15-4.12,2.17-5.7,1-.81-.18-2.49-.26-3.79,1.37-2.46,3-4.14,6-2.16a.8.8,0,0,0,1.33-.6c.08-.61.55-.4.8-.18,1.47,1.29,3.19.57,4.81.68.66,2.05,1.24,4.13,2,6.14,1.13,3,1.92,6.14,4.11,8.63-.5.78-.85,1.12-1.59.05s-1.71-2.32-3.6-1.76a1.86,1.86,0,0,1-2.12-1.19c0-.1.14-.33.27-.39a4,4,0,0,0,1.34-5.14c-.61-1-1.06-1.79-2.57-1.74-.87,0-2.94.39-2.52-1.87a7,7,0,0,0-1.43-.15c-.23,0-.43.37-.64.57,2,.41,1.69,1,.13,1.67-.09,0-.1.29-.15.45s-.13.5-.19.75a3.64,3.64,0,0,1-.78-.79c-.15-.29-.17-.71-.57-.57-.22.07-.4.46-.47.74-.41,1.64-.41,1.63-1.59,1-.21-.12-.77.12-1,.36-.77.83-.25,1.88-.31,2.82,0,.78.63.23,1,.25h0c-.14.38-.52.91-.39,1.12.42.66.66,1.26-.07,1.76a1.38,1.38,0,0,1-1.92-.35c-.17-.17-.68-.32-.71-.26-.48.72.23,1.34.24,2,0,.11.27.33.32.31,1.24-.55,1.76.66,2.61,1,.11.05.14.26.2.39-.18,0-.39.12-.54.06-2.43-.92.49,2.11-1.24,1.68l.39.44.45.46a3.58,3.58,0,0,1-.65,0c-.54-.08-.51-.1-.38.4a3.53,3.53,0,0,0,3.1,2.94c.13,0,.24.18.36.28a1.43,1.43,0,0,1-.41.17c-1.05.07-1.81.64-1.44,1.65a3.09,3.09,0,0,0,2.71,2.15c.3,0,.43-1,.81-.08.29.67-.14.75-.58.87-.61.16-1.06.54-.92,1.18s.82.54,1.37.45c1.16-.18,1.33.86,1.62,1.53a1.33,1.33,0,0,1-.39,1.71c-.33.26-.91-.52-.89.26s.7.59,1.13.64a14.58,14.58,0,0,0,2,0c.24,0,.59-.29.62.22,0,.31.07.8-.09.9-.44.28-.34-.19-.41-.42,0-.07-.16-.1-.25-.15a1.61,1.61,0,0,0-.17.54c0,1.17,1.38.83,1.84,1.59.19.31.71.25,1.06-.09.18-.18.42-.7.64-.08.14.4.44,1.26-.11,1.22-1.46-.11-.29,1.22-.94,1.44.11.1.23.3.31.28a14.75,14.75,0,0,0,1.76-.49c.22-.08.44-.43.59-.39.51.13.09.39,0,.62-.22.92.5,1,1.09,1.32s.3-.33.51-.37a2.38,2.38,0,0,1,.87-.1c.11,0,.15.38.23.58.21.47-.46.89.14,1.5,1.35,1.34,3.4,0,4.65,1.38,0,0,.17,0,.24,0,1.29-.55,2.11.11,2.84,1.07s1.14,1,2.27.39,1.89-1.14,1.93-2.47c0-.43.55-.33.77-.49a8.56,8.56,0,0,0,2.22-2.1c.29-.45-.69-.71-.94-1.05-.9-1.21-2.47-.2-3.33-1.21.22-.79.45-1.57.68-2.36a2.38,2.38,0,0,1,2.34.53c.88.63,1.91-.05,2.81-.34a1.23,1.23,0,0,0,.61-1.63c-.2-.65.15-1.51-1.11-1.8-.59-.14-2.09.09-2.07-1.11,0-1.82-.92-1.11-1.77-.87s-1.21-.63-1.74-1.06a1.44,1.44,0,0,1,.27-.42c1.53.53.73-1.11,1.34-1.42-.53-.82-1.2-.23-1.82-.18h0c-.5-.84-.93-1.72-2.14-1.71-2.32,0-.61-1.88-1.25-2.69a.84.84,0,0,1,.25-.34c1.24.43,1.81-.37,2.11-1.31.12-.37-.26-1.28-.48-1.3-1-.11-2.08-.72-2.8.52-.18.3-.54.22-.43,0a4.73,4.73,0,0,1,1.08-1.53c.3-.28.6-.85,1.19-.54.23.13.36.71.67.15.07-.12-.14-.48-.3-.65-1.59-1.66-1.44-3.07.46-4.41.41-.3.53-1,.79-1.54a6.29,6.29,0,0,1-1.23,0c-1.11-.25-1.45,1.08-2.33,1.09-.25,0-.53-.74-.87,0-.26.55-.44,1.25,0,1.66s.75.66.3.73-1.2,1.27-1.84.12c.44-6.42.85-12.83,1.36-19.24.14-1.86.88-3.75-1.77-4.57-.59-.18-1.12-1-1.37-1.71-1.33-3.46-1.48-7.13-1.72-10.77,0-.78.1-2-.32-2.25-.68-.45-.85,1-1.58,1.08-1,0-2.15.2-1.56-1.5.23-.65-.47-.84-.81-1.19s-2.33-.69-.26-1.2c2.79-.68,2.29-3.83,4.47-5.07,2.77-1.59,5.22-4,8.68-2.43A5.81,5.81,0,0,0,100.25,86.74Z" fill="#6e66ae"/><path d="M61.63,6.68c3-.84,5.89.87,8.91.12,1.31-.32,1.44,1,1.88,2,.9,2.17,3.48,2.3,5.25,3.46A11.08,11.08,0,0,1,81.8,16.7c2.68,5.52,3,11.51,3.54,17.45.1,1-1,1.23-.89,2.2a69.4,69.4,0,0,0,2.47,12.94,3.37,3.37,0,0,1-1.61,3.89c-1.06.73-2-.27-2.79-1.26-1.7-2-2.25-4.53-3.21-6.86-.22-.54-.37-1-1.06-.73a3.42,3.42,0,0,0-.86.25c-1.7,1-1.83,3-2.65,4.49a12.76,12.76,0,0,0-.87,4.11c0,.28.95.48.41.84s-.66,1.47-1.78,1c-.27-.11-1.3-.63-1.4.51l-.06.06.06-.07a3.42,3.42,0,0,0,.71-.07c.63-.18,1,.56.76.57a59,59,0,0,1-6.37-.28,4.22,4.22,0,0,1,0-.76c0-.47-.15-.6-.66-.49a1.82,1.82,0,0,1-2.31-1.36l.05-.05-.05.06c-1.27.4-2.67,1.31-3.85.67a5.41,5.41,0,0,0-3.82-.44h0l-.2-.49c-1.93,1.13-2.41.11-2.51-1.63A1.34,1.34,0,0,0,51.75,51a3.17,3.17,0,0,1-3.46.39c-1.16-.54-2.18-2.08-3.81-1,.23-2.05-2.22-2.42-2.58-4.09-.25-1.19-1.55-1.28-1.8-.83-.73,1.33-1,.44-1.49,0-1.12-1-.87-2.26-.51-3.42.1-.35.77-.57.45-1.13s-.74-.41-1.24-.37-1.11.31-1.39-.32c-.12-.28-.06-.94.08-1,1.5-.57.84-1.15.14-1.88-.2-.21-.06-.74-.09-1.13,0-.16.23-.53-.25-.4-.23.07-.35.94-.55.29S34.11,34.9,35,34.16a3.63,3.63,0,0,0,1.08-2.79c.18-1.93-1.29-3.78-.2-5.73.3-.54,0-.65-.5-.93-1.36-.79-.8-2.42-1.3-3.61-.06-.14.31-.46.47-.7-.29,0-.59.05-.88.09-.45.06-1.1.37-1.26-.18a1.36,1.36,0,0,1,.61-1.56c.47-.26,1,.24,1.37.36,1,.27,2.6-.69,2.82,1.44A3,3,0,0,0,39,22.66c1.86.39,2.43,1,1.84,2.84a2.42,2.42,0,0,0,0,.66c.19-.12.37-.25.57-.35s0-1,.67-.72c.28.12.43.62.55,1,.44,1.31.85,2,1.29,0,.76.26.84,2,2.17,1,.11-.09.11-.38.1-.57,0-.5.09-1,.66-.88s.24.64.23,1-.37.74.19.88.54-.38.62-.76a2.59,2.59,0,0,1,.33-.72l.29.12c-1.14,2,1.72,1.85,1.78,3.25,0,.35.43.95.77.62.68-.64,1.13.15,1.67.07-.12,1.1,1.37,1.53,1.09,2.75-.24,1,.29,2.82.73,2.61,2-1,1,.7,1.24,1.19s.4,1,1,1.11c.09,0,.34-.13.33-.17-.49-2.63,1.5-.51,2.11-1,0,0,.56.15.62-.18a2,2,0,0,0-.08-1.12c-.07-.17-.56-.4-.65-.33-.91.67-.83,0-.84-.58,0-.11-.2-.33-.21-.33-.29.16-.69.85-.86.18A3.7,3.7,0,0,1,57.57,32c.25-.6.64.12,1,.11a3.65,3.65,0,0,1,.94.22,5.42,5.42,0,0,1-.35-.83c-.29-1.22-1.06-2.25-.91-3.69a11.72,11.72,0,0,1,.18-2.33c.06-.19-.07-.44-.11-.66a4.45,4.45,0,0,1,1,0c.12,0,.24.39.23.59-.08,1.09-.28,2.17-.29,3.25a13.55,13.55,0,0,0,.35,2.27,18.39,18.39,0,0,0,1-1.8c.43-1,1.09-1,1.9-.51a4,4,0,0,1,.49.44,2.68,2.68,0,0,0,.1-.87c-.1-.42-.3-.83.36-.85.39,0,1,.15.84.62-.3,1.22.83,2,.82,3.13,0,.21.07.55.41.24,1-.92,1.42-.76,1.83,1,.68,2.91,2.66-.34,3.69.83.09-.14.26-.28.27-.43,0-.81,1-.62,1.25-1.21.33.26.85.46,1,.8.28.86-.75.26-.91.69a2.59,2.59,0,0,0-.18,1c0,.16.33.45.46.43.55-.11,0-.6.17-.75.57-.54,1.37-.9,1.17-1.9.45.53,1.09,1,1.3,1.6s-.25,1.25-.78,1.7a4,4,0,0,1-.48.32c.19.11.55.21.55.33,0,1.67,4.08-.21,2.53,2.85,0,0,.16.21.18.2,2-1.08,2.61.69,3.57,1.7.53.56.73,1-.36,1.27-.67.17-1.73.61-1.65,1.48.1,1,1.13.66,1.62.37.88-.52,3.68.88,2.26-2.11,0,0,.15-.12.14-.17-.16-1.34-.3-2.69-.52-4,0-.15-.48-.21-.72-.33-1.49-.71-2.66-1.4-.11-2.32.51-.19.89-.8.32-1.24a1.21,1.21,0,0,1-.15-1.85c1.7-2.23-2.48-2.86-1.27-4.89-1.7-.84-3-2.73-4.89-2.75-1,0-2.07,1.53-3.36.27-.48,1.07-1.55.89-2.42,1.15l-1.09-2.84c1.5,1.06,2.17-.92,3.37-.93-.19-.62-.43-1.24-.56-1.88-.4-2-.53-3.92,1.44-5.26.26-.17.61-.3.26-.72s-.68-.47-1-.1c-1.36,1.51-2,.43-2.46-.74C69.25,11,68.15,9.57,66.1,9.43c-.83-.06-1.16,0-1.33-.95-.24-1.2-.9-2-2.32-1.22C62.11,7.44,61.51,7.44,61.63,6.68ZM59,38.23l-.46-.76c-.1.18-.3.37-.28.54a4.19,4.19,0,0,0,.3.86Zm15.47-4.1-.3-.25c0,.09-.13.21-.1.28a1.62,1.62,0,0,0,.26.34ZM59,33.27l-.24.25c.08.07.16.19.24.19s.15-.12.23-.18ZM37.77,39.11c-.05.11-.13.2-.11.23a1,1,0,0,0,.23.22c0-.06.1-.14.08-.19A1.07,1.07,0,0,0,37.77,39.11ZM70,54.67l0-.07H70ZM39.15,43.85l0-.09,0,.09Z" fill="#fdd47d"/><path d="M61.94,84.33a77.55,77.55,0,0,0-2.47,8.81,18.75,18.75,0,0,1-2.38,6.71c-1.42,2.32-2.65,4.93-5.13,6.61-2,1.36-3.73,3.1-6,4.12-.21.1-.44.37-.62.33-3.61-.77-5.12,1.83-7.17,4-3.77,4.06-7.7,4.25-12.7,1.76a11.57,11.57,0,0,0-6.43-1.27c-.23,0-.6.07-.68-.05-1.71-2.48-5.08-2.28-7-4.22-1.54-1.58-1.46-4.09-2.15-6.16L9,103.67C7.4,98.54,5.68,93.41,7.57,88a21.4,21.4,0,0,1,7-9.34,74.74,74.74,0,0,0,5.82-6.1A4.75,4.75,0,0,1,22,72.9c1,.63,2.25-.92,3.05.49,0-1.17,1.62-.61,1.74-1.69,0-.22.45-.39.69-.58.11.15.31.29.33.45.08.73.37,1.56,1.1,1.43a7.29,7.29,0,0,0,3.32-1.3c.32-.27,1.33.39,1.11-.77-.31-1.67,1.13-2.54,2.11-3.47.48-.46,1.6-.87,1.9.7.16.84-.55,2.35.47,2.45,1.77.17,3.5,1.61,5,1.07,2.1-.74,3.79-.11,5.65.32.71.16,1.91-.07,2.1.3.91,1.7,1.69.78,2.64.15.62-.42,2-1.16,1.7.24a3,3,0,0,0,1.53,3.6c1.36.69,1.62,2.84,3.73,2.51,1.22-.19,1.64,1.73,1.45,1.87C59.61,82.17,62,83.13,61.94,84.33Zm-33,1.9v0c-.53-.59-1-1.17-.36-2,.08-.11,0-.35,0-.53-.17.06-.43.06-.51.18-1,1.6-1.12-.18-1.57-.42s-.1-1.51-1.06-.39c-.12.14-1.44-.31-1.54-.67-.2-.74.57-.09.9-.32,1.75-1.28-1.2-1.9-.4-3.06.14-.22-.22-.6-.51-.36s-.95.23-.81.86c.06.28,1,.37.23.81-.51.3-.43-.38-.66-.57s-.54-.09-.82-.12c-.94-.12-1,1.9-2.37.94-.16-.12-.91.67-1.13.56-1.64-.87-2.08,1.34-3.49,1.27-.84,0,.05.68.05,1.07s.31,1-.37,1.31a1.57,1.57,0,0,1-1.65-.28c-.34-.2,0-1.11-.68-.79-.19.09-.13.94,0,1.4.23,1,.45,1.81-1.06,1.12-.22-.1-.46,0-.71.33A25.62,25.62,0,0,0,9,89.93a10.86,10.86,0,0,0-.78,6.94c.74,3.73,2,7.36,3.1,11,.13.44.5,1.11.8,1.13.52,0,.19-.62.3-1,.06-.18.11-.36.16-.53.16.2.42.38.46.6.19,1,.32,1.91,1.34.47.47.42,1.7.1,1.49,1.06-.28,1.21.55,1.22,1.15,1.31.77.11,2.2-1.27,1.92,1.06,0,.18,3.25-.68,2.5,2.09a1.66,1.66,0,0,0,.29.1c.56-1.34,1.15-1.27,2.08-.24.2.22,1.38.06,1.83-.65s.92-.39,1.3.08c1.73,2.08,3.65,2.14,5.83.7a2.09,2.09,0,0,1,1.56-.13c.49.16.33,1.16,1.14,1.17,1.43,0-.25-.68.24-1.06,1.23-1,.36-3.68,3-3.54-.55-2.16,2.58-2.27,2.38-4.26,0-.09.35-.21.53-.32.23,1.57,1.73.93,2.58,1.42.3.17.28,1.43,1,.46.32-.44.91-1.4-.47-1.54,0,0-.1-.38-.09-.39.92-.27,1.85-2.22,2.77,0,.2.46.34,0,.46,0,1.16.18,1.15-2.38,2.82-1.2.16.11,1-.74,1.5-1.17a.45.45,0,0,0-.14-.33c-.22-.09-.6.57-.66-.11,0-.16.45-.55.67-.53,1.44.1,1.59-.55,2.14-1.87.89-2.16,2.56-4,2.35-6.55l.37-.17-.19-.18-.16.37c-.78-.82-2,.57-2.31-.07-1.43-2.56-2.43,1.27-3.67.13-.08.28-.06.79-.53.37-.1-.1.06-.75.2-.79,1.68-.5.65-3.7,3.24-3.27a2.35,2.35,0,0,0,.14-.52c-.35-.14,0-1.11-1.09-.54-1.8.91-1.19-.91-1.52-1.82-.72-2,.52-4.26-.45-5.86-.53-.87-1.28-1.22-.62-2.28l-.22,0c-1.16-.28-2.39-.4-3.13-1.57-.11-.17-.55-.15-.84-.21a2.66,2.66,0,0,0,.07.75c.42,1.16-.63,1.53-1.23,1.83-.42.21-.11-.64-.29-1-.27-.47-.6-.9-.9-1.34-.59.45.19.93,0,1.37s1.29.85.23,1.2c-.56.19-.68-.78-.72-1.39,0-.46-.17-.9-.72-.88a1.28,1.28,0,0,0-.16.92c1.3,2.07-1.75-.31-1.13,1.1,0,.1-.46.13-.8,0-1.62-.6-.83,2.26-2.47,1.79a.55.55,0,0,0-.23.86c.08.08.22.1.31.17a2.23,2.23,0,0,1,.4,2.45,1.58,1.58,0,0,1-1.71,1.37,1.16,1.16,0,0,0-1.17,1.53c.44.8-.08.83-.33,1.31-.49,1-1.75,1.08-2,2.51-.14.87,1.12,2.46-.78,3-.45.12-1.23-.13-1.26.75-.61-.2-.74-.74-.85-1.27,1.23.34.89-1.1,1.69-1.52,1.49-.79.28-2.86,1.12-4.17-.56.14-1.11.29-1.67.41a2.22,2.22,0,0,1-.45,0c0-.09-.05-.21,0-.28C31.47,87.66,30.8,86.47,28.92,86.23Zm22.72-4.17-.31-.37a.9.9,0,0,0-.08.3c0,.1.11.18.16.27Zm-20.58,3c-.08.15-.17.25-.16.33s.13.15.2.22c.06-.09.15-.17.16-.26S31.16,85.22,31.06,85.09Zm.12,9.36c.06,0,.14.09.19.07a.19.19,0,0,0,.07-.17s-.13-.1-.17-.08S31.21,94.38,31.18,94.45Zm8.62,15,0,.09s.08,0,.09,0,0-.06,0-.09Z" fill="#517abd"/><path d="M100.25,86.74a5.81,5.81,0,0,1-5-.3c-3.46-1.52-5.91.84-8.68,2.43-2.18,1.24-1.68,4.39-4.47,5.07-2.07.51-.11.83.26,1.2s1,.54.81,1.19c-.59,1.7.58,1.48,1.56,1.5-.89,1.31-2.34,2-2.85,3.85-1.45,5.18-2.2,10.25-.25,15.44.53,1.42.88,2.91,1.31,4.37-1.62-.11-3.34.61-4.81-.68-.25-.22-.72-.43-.8.18a.8.8,0,0,1-1.33.6c-3-2-4.62-.3-6,2.16-1.26-6.18-3.21-12.3-1.33-18.69a6.29,6.29,0,0,1,.88-2.21c3.37-4.09,2.65-9.35,4.14-14,.73-2.26,1.31-4.83,2.79-6.5,1.62-1.83,2.86-4.25,5.33-5.2a3.27,3.27,0,0,1,2,.24c.67.26.09.83.08,1.26-.08,2.18-1.69,3.54-2.79,5.16-.75,1.09.2,6.07,1.21,6.79.69.5.95.12,1.18-.34.69-1.4,1.73-2.6,1.75-4.36,0-1.51,3.86-4.39,5.4-4.3.22,0,.58.11.63.25,1.22,3.15,1.41-.07,1.88-.37,1-.66,2.08-1.61,3.27-1.37a4.69,4.69,0,0,1,3.73,2.95A5.36,5.36,0,0,1,100.25,86.74Z" fill="#666aac"/><path d="M61.94,84.33c.05-1.2-2.33-2.16-.33-3.66.19-.14-.23-2.06-1.45-1.87-2.11.33-2.37-1.82-3.73-2.51a3,3,0,0,1-1.53-3.6c.29-1.4-1.08-.66-1.7-.24-1,.63-1.73,1.55-2.64-.15-.19-.37-1.39-.14-2.1-.3-1.86-.43-3.55-1.06-5.65-.32-1.5.54-3.23-.9-5-1.07-1-.1-.31-1.61-.47-2.45-.3-1.57-1.42-1.16-1.9-.7-1,.93-2.42,1.8-2.11,3.47.22,1.16-.79.5-1.11.77A7.29,7.29,0,0,1,28.9,73c-.73.13-1-.7-1.1-1.43,0-.16-.22-.3-.33-.45-.24.19-.66.36-.69.58-.12,1.08-1.77.52-1.74,1.69C24.24,72,23,73.53,22,72.9a4.75,4.75,0,0,0-1.65-.37c2.74-4.23,6.84-6.29,11.62-7.19,5-.93,9.77-2.92,14.94-2.74a11.57,11.57,0,0,1,5.19,1.07c2.26,1.18,4.62.37,6.92,0,6-.84,11.94.24,17.91.57,1.39.08,2.78.08,4.17.16.69,0,1.62-.07,1.8.78a2.3,2.3,0,0,1-1,2.47c-3.13,2.44-6.71,2.26-10.33,2.12a11.38,11.38,0,0,0-1.31-.08c-1.21.07-2.85-.12-3.24,1.11-.17.53,1.82.39,2.78.71s1.9.41,2.2,1.5a3.15,3.15,0,0,1-1,3.47C68.24,79.47,63.74,80.35,61.94,84.33Z" fill="#517abd"/><path d="M61,6.34l-1-.17C60.43,6,60.79,5.85,61,6.34Z" fill="#fbc84f"/><path d="M103.27,73.56a4,4,0,0,0,.34.23A4,4,0,0,1,103.27,73.56Z" fill="#3c92d0"/><polygon points="49.23 7.03 49.18 7.05 49.18 6.99 49.23 6.97 49.23 7.03" fill="#3c92d0"/><path d="M99.83,69.8a.08.08,0,0,1,0,.13l0-.08Z" fill="#3c92d0"/><path d="M139.78,26l0,.09-.15,0a.18.18,0,0,1,0-.1S139.75,26,139.78,26Z" fill="#3c92d0"/><path d="M103.92,73.79l.21-.52.18.23-.4.27Z" fill="#3c92d0"/><path d="M173.23,86.37c-2.23-3.68-4.43-7.41-8.58-9.31-1.46-.67-3-1.84-4.43-1.76-3,.19-4.77-2.17-7.24-3s-4.59-3.08-7.51-3.21c.12.8,1.75.35,1.35,1.6h0a6.76,6.76,0,0,1,3.37,3.76c.15.43.53.72.66,1,.86,2.11,3.83,2,4.45,4.56.3,1.25,1.89,2.27,3,3.19,1.42,1.12.26,3.92,3,4.18,2.08.19,3,2.52,5,3.09.5.15.63.41.84.93.85,2.08,2.56,3.5,4.23,4.91,0-.57-.14-1.25.1-1.69,1.32-2.37.44-5.24,1.83-7.58C173.44,86.9,173.34,86.56,173.23,86.37Z" fill="#7ab889"/><path d="M102.12,72.76c-.2-2.54-.17-2.54-2.15-2.32-.1,0-.23-.24-.34-.37A10.9,10.9,0,0,0,95.26,70a2,2,0,0,0-1.78,2.28c.15,1,.94,1.47,2.09,1.82,2.7.8,5.09-.35,7.62-.62C102.82,73.24,102.14,73,102.12,72.76Z" fill="#009e55"/><path d="M143.71,104.47v0h0v0c.07-.48-.76-1.52.53-1.25s1.41-.6,1.63-1.14.42-1.89,0-2.24c-1.33-1.24-1.87-2.28-.46-3.85.32-.36-.05-1.34-.12-2,0,0-.12-.07-.19-.1-.08.48-.17,1-.23,1.44-.22,1.57-2.16,2-2.32,3.64-.19-.1-.36-.27-.55-.29-.48,0-1.2-.22-1.4,0-.64.78.49.53.63.87a2.65,2.65,0,0,1,.22,1.11c0,.3-.36.38-.6.55-1.15.82-1-.46-1.49-.79-.25.65-.5,1.3-.76,1.94-.16.41-.33.82-.49,1.22,0-.48,0-1,.05-1.45s0-.87.05-1.31c-.09,0-.2,0-.26.1-1.19,1.12-2.4,2.15-4.21,1.38-.16.6-1.18-.22-1.26.89a6.08,6.08,0,0,0,.4,2,3.63,3.63,0,0,0-.8.14c-.37.16-.37.49,0,.57.57.11,1.27,1.45,1.8-.25.16-.5,1.29-1.51,2.38-.09.34.45-1.27,2.54,1,1.47a.59.59,0,0,1,0,.23c-.72,1.58,1.4,1.73,1.47,2.91.13-.06.39-.12.38-.16C138.88,106.71,143.46,107.36,143.71,104.47Z" fill="#7ab889"/><path d="M149.87,109.36c-1.42-.45-2.92-1.07-4.48-.64-.35.09-.5.78-1,.2-.38-.4-1.25-.45-.91-1.33-.17.14-.46.31-.44.41.45,2.12-.46,2.75-2.43,2.31-.1,0-.42.43-.4.45.46.51.95,1,1.45,1.46,0,0,.35-.14.34-.16-.4-1.57,1.32.32,1.2-.75.19.27.37.56.57.82a2.31,2.31,0,0,0,2.2.69c.36,0,.34-1-.34-1.48-.24-.17,0-.93,0-1.43a3.28,3.28,0,0,0,.7.65c.8.38,1.44,1.87,2.53.43.13-.18-.22-.75.35-.63s.51.43.23.84-.1.59.31.69c.25.07.62,0,.43-.25C149.59,110.86,150.77,109.65,149.87,109.36Z" fill="#7ab889"/><path d="M143.49,95.94l.72-1c-.09-.63-.05-1.18-.61-1.21-.32,0-.93.1-.81.64A6.91,6.91,0,0,0,143.49,95.94Z" fill="#7ab889"/><path d="M144.63,108.25l.63-.57-.56-.49a2.84,2.84,0,0,0-.4.66C144.28,107.94,144.52,108.11,144.63,108.25Z" fill="#7ab889"/><path d="M145.81,93.1c.13,0,.3-.14.6-.3-.27-.16-.4-.29-.55-.31s-.24.13-.36.2C145.6,92.84,145.68,93.07,145.81,93.1Z" fill="#7ab889"/><path d="M142.33,109.1c0,.08.08.18.15.33.1-.13.21-.21.21-.29s-.1-.17-.16-.26C142.46,109,142.34,109,142.33,109.1Z" fill="#7ab889"/><path d="M141.84,107.71c0-.06.09-.14.07-.18s-.11-.06-.17-.09-.09.14-.07.18S141.78,107.68,141.84,107.71Z" fill="#7ab889"/><path d="M143.49,107.54l0,0a0,0,0,0,0,0,0l0,0Z" fill="#7ab889"/><path d="M143.68,107.21l-.19.33.33-.19Z" fill="#7ab889"/><path d="M170.17,96.42l.29.22a1.2,1.2,0,0,0,.14-.28s-.13-.11-.17-.1A1.4,1.4,0,0,0,170.17,96.42Z" fill="#7ab889"/><path d="M143.88,104.7l-.16-.21.06.27Z" fill="#7ab889"/><path d="M139.29,100.33l.09.06h0v0Z" fill="#7ab889"/><path d="M146.82,70.67h0Z" fill="#3c92d0"/><path d="M74.49,34.13l-.14.37a1.62,1.62,0,0,1-.26-.34c0-.07.06-.19.1-.28Z" fill="#fbc84f"/><path d="M59,33.27l.23.26c-.08.06-.15.18-.23.18s-.16-.12-.24-.19Z" fill="#fbc84f"/><polygon points="39.15 43.85 39.07 43.85 39.11 43.76 39.15 43.85" fill="#47519d"/><polygon points="63.19 53.18 63.24 53.12 63.19 53.17 63.19 53.18" fill="#47519d"/><path d="M62.05,27.09a10.56,10.56,0,0,1-1,.54c-.39.13-.53-.15-.46-.44s.26-.54.41-.55S61.51,26.84,62.05,27.09Z" fill="#fbc84f"/><path d="M70.16,28.17l.71.14c0-.19,0-.37-.05-.55.51.23.77.76.38,1.06S70.37,28.64,70.16,28.17Z" fill="#fbc84f"/><path d="M76.66,31.83l-.2.26a2.14,2.14,0,0,1-.23-.38c0-.05.11-.14.17-.22Z" fill="#fbc84f"/><polygon points="63.19 53.17 63.19 53.18 63.19 53.18 63.19 53.17" fill="#f9bd15"/><path d="M83,41.47s.15-.12.14-.17c-.16-1.34-.3-2.69-.52-4,0-.15-.48-.21-.72-.33-1.49-.7-2.66-1.4-.11-2.32.51-.19.89-.8.32-1.24a1.21,1.21,0,0,1-.15-1.85c1.7-2.23-2.48-2.86-1.27-4.9-1.7-.83-3-2.72-4.89-2.74-1,0-2.07,1.53-3.36.27-.48,1.07-1.55.89-2.42,1.15.27.81.54,1.63.82,2.44.51.23.77.76.38,1.06s-.83-.18-1-.65A.31.31,0,0,0,70,28l0,0c-1.88-.74-2.32-3.18-4.46-3.72-.47-.12-.57-1.34-.16-1.71a6.11,6.11,0,0,1,2.47-1.26c.71-.18.83.69,1.12,1.17,1.5,1.06,2.17-.92,3.37-.93-.19-.62-.43-1.24-.56-1.88-.4-2-.53-3.92,1.44-5.26.26-.17.61-.3.26-.72s-.68-.47-1-.1c-1.36,1.51-2,.43-2.46-.74C69.25,11,68.15,9.57,66.1,9.43c-.83-.06-1.16,0-1.33-.95-.24-1.2-.9-2-2.32-1.22-.34.18-.94.18-.82-.58L61,6.34l-1-.17a18.83,18.83,0,0,1-2.23.48C55,7,52.16,8.27,49.23,7l0,0V7l-.43-.26a3.21,3.21,0,0,0-3.91-.54,3.48,3.48,0,0,1-3.35.37C38.27,5,35.15,5.35,31.81,6.11c-3.67.83-6.06,3.65-5,6.68,2.12,5.93,4.06,12,7.35,17.38a2.11,2.11,0,0,1,0,2.28c-1.89,4.13-.63,10,2.48,13.43,4.63,5,10.62,7.4,17.06,8.56,5.69,1,11.4,1.72,16.66,4.37a9,9,0,0,0,7,.44c1.64-.54,3.16-1.49,3.09-3.54s-1.45-2.59-3.2-2.84c-.94-.14-2.56-.7-1.87-1.67,1.53-2.12,1.07-5,2.85-6.87a3.42,3.42,0,0,0-.86.25c-1.7,1-1.83,3-2.65,4.49a12.76,12.76,0,0,0-.87,4.11c0,.28.95.48.41.84s-.66,1.47-1.78,1c-.27-.11-1.3-.62-1.39.5a4.05,4.05,0,0,0,.7-.07c.63-.18,1,.56.76.57a59,59,0,0,1-6.37-.28,4.22,4.22,0,0,1,0-.76c0-.47-.15-.6-.66-.49a1.82,1.82,0,0,1-2.31-1.35c-1.27.4-2.67,1.31-3.85.67a5.41,5.41,0,0,0-3.82-.44c-.06-.16-.13-.33-.2-.49-1.93,1.13-2.41.11-2.51-1.63A1.34,1.34,0,0,0,51.75,51a3.17,3.17,0,0,1-3.46.39c-1.16-.54-2.18-2.08-3.81-1,.23-2.05-2.22-2.42-2.58-4.09-.25-1.19-1.55-1.28-1.8-.83-.73,1.33-1,.44-1.49,0-1.12-1-.87-2.26-.51-3.42.1-.35.77-.57.45-1.13s-.74-.41-1.24-.37-1.11.31-1.39-.32c-.12-.28-.06-.94.08-1,1.5-.57.84-1.15.14-1.88-.2-.21-.06-.74-.09-1.13,0-.16.23-.53-.25-.4-.23.07-.35.94-.55.29S34.11,34.9,35,34.16a3.63,3.63,0,0,0,1.08-2.79c.18-1.93-1.29-3.78-.2-5.73.3-.54,0-.65-.5-.93-1.36-.79-.8-2.42-1.3-3.61-.06-.14.31-.46.47-.7-.29,0-.59.05-.88.09-.45.06-1.1.37-1.26-.18a1.36,1.36,0,0,1,.61-1.56c.47-.26,1,.24,1.37.36,1,.27,2.6-.69,2.82,1.44A3,3,0,0,0,39,22.66c1.86.39,2.43,1,1.84,2.84a2.42,2.42,0,0,0,0,.66c.19-.12.37-.25.57-.35s0-1,.67-.72c.28.12.43.62.55,1,.44,1.31.85,2,1.29,0,.76.26.84,2,2.17,1,.11-.09.11-.38.1-.57,0-.5.09-1,.66-.88s.24.64.23,1-.37.74.19.88.54-.38.62-.76a2.59,2.59,0,0,1,.33-.72l.29.12c-1.14,2,1.72,1.85,1.78,3.25,0,.35.43.95.77.62.68-.64,1.13.15,1.67.07-.12,1.1,1.37,1.53,1.09,2.75-.24,1,.29,2.82.73,2.6,2-1,1,.71,1.24,1.2s.4,1,1,1.11c.1,0,.34-.13.33-.17-.49-2.63,1.5-.51,2.11-1,0,0,.56.15.62-.18a2,2,0,0,0-.08-1.12c-.07-.17-.56-.4-.65-.33-.91.67-.83,0-.84-.58,0-.11-.2-.33-.21-.33-.29.16-.69.85-.86.18A3.7,3.7,0,0,1,57.57,32c.25-.6.64.12,1,.11a3.65,3.65,0,0,1,.94.22,5.42,5.42,0,0,1-.35-.83c-.29-1.22-1.06-2.25-.91-3.69a11.72,11.72,0,0,1,.18-2.33c.06-.19-.07-.44-.11-.66a4.45,4.45,0,0,1,1,0c.12,0,.24.39.23.59-.08,1.09-.28,2.17-.29,3.25a13.55,13.55,0,0,0,.35,2.27,18.39,18.39,0,0,0,1-1.8c.43-1,1.09-1,1.9-.51a4,4,0,0,1,.49.44,2.68,2.68,0,0,0,.1-.87c-.1-.42-.3-.83.36-.85.39,0,1,.15.84.62-.3,1.22.83,2,.82,3.13,0,.21.07.55.41.24,1-.92,1.42-.76,1.83,1,.68,2.91,2.66-.34,3.69.83.09-.14.26-.28.27-.43,0-.81,1-.62,1.25-1.21.33.26.85.46,1,.8.28.86-.75.26-.91.69a2.59,2.59,0,0,0-.18,1c0,.16.33.45.46.43.55-.11,0-.6.17-.75.57-.54,1.37-.9,1.17-1.9.45.53,1.09,1,1.3,1.6s-.25,1.25-.78,1.7a4,4,0,0,1-.48.32c.19.11.55.21.55.33,0,1.67,4.08-.21,2.53,2.85,0,0,.16.21.18.2,2-1.08,2.61.69,3.57,1.7.53.56.73,1-.36,1.27-.67.17-1.73.61-1.65,1.48.1,1,1.13.66,1.62.37C81.6,43.06,84.4,44.46,83,41.47ZM71.49,57.33l-.15-.24h0Zm-.31-.1c0,.06.06.15.11.17s-.08-.11-.11-.17ZM55.44,53.45l.08,0-.1.11S55.42,53.46,55.44,53.45ZM54.9,33.37l0-.12.08,0Zm.2.67a.13.13,0,0,1,0-.09s.05,0,.07,0l0,.08Zm5.95-6.41c-.39.13-.53-.15-.46-.44s.26-.54.41-.55.51.2,1,.45A10.56,10.56,0,0,1,61.05,27.63ZM73.73,31a.91.91,0,0,1-.11-.16s.06-.09.07-.08a1,1,0,0,1,.2.11Zm2.73,1.09a2.14,2.14,0,0,1-.23-.38c0-.05.11-.14.17-.22l.26.34Z" fill="#f9bd15"/><path d="M58.28,38a4.19,4.19,0,0,0,.3.86l.44-.64-.46-.76C58.46,37.65,58.26,37.84,58.28,38Z" fill="#f9bd15"/><path d="M37.89,39.56c0-.06.1-.14.08-.19a1.07,1.07,0,0,0-.2-.26c-.05.11-.13.2-.11.23A1,1,0,0,0,37.89,39.56Z" fill="#f9bd15"/><polygon points="70.06 54.6 70 54.59 70.02 54.67 70.06 54.6" fill="#f9bd15"/><polygon points="71.04 55.63 71.11 55.57 71.11 55.56 71.1 55.56 71.04 55.63" fill="#f9bd15"/><path d="M73.89,30.87l-.16.13a.91.91,0,0,1-.11-.16s.06-.09.07-.08A1,1,0,0,1,73.89,30.87Z" fill="#fbc84f"/><path d="M54.9,33.37l0-.12.08,0Z" fill="#fbc84f"/><path d="M55.19,33.93l0,.08-.13,0a.13.13,0,0,1,0-.09S55.17,33.93,55.19,33.93Z" fill="#fbc84f"/><path d="M55.52,53.41l-.1.11s0-.06,0-.07l.08,0Z" fill="#3c92d0"/><polygon points="69.94 28 69.99 27.95 69.99 28.02 69.94 28" fill="#fbc84f"/><path d="M56.47,94.14c.21,2.57-1.46,4.39-2.35,6.55-.55,1.32-.7,2-2.14,1.87-.22,0-.69.37-.67.53.06.68.44,0,.66.11a.45.45,0,0,1,.14.33c-.5.43-1.34,1.28-1.5,1.17-1.67-1.18-1.66,1.38-2.82,1.2-.12,0-.26.46-.46,0-.92-2.2-1.85-.25-2.77,0,0,0,0,.39.09.39,1.38.14.79,1.1.47,1.54-.68,1-.66-.29-1-.46-.85-.49-2.35.15-2.58-1.42-.18.11-.54.23-.53.32.2,2-2.93,2.1-2.38,4.26-2.6-.14-1.73,2.59-3,3.54-.49.38,1.19,1.07-.24,1.06-.81,0-.65-1-1.14-1.17a2.09,2.09,0,0,0-1.56.13c-2.18,1.44-4.1,1.38-5.83-.7-.38-.47-.82-.85-1.3-.08s-1.63.87-1.83.65c-.93-1-1.52-1.1-2.08.24a1.66,1.66,0,0,1-.29-.1c.75-2.77-2.52-1.91-2.5-2.09.28-2.33-1.15-1-1.92-1.06-.6-.09-1.43-.1-1.15-1.31.21-1-1-.64-1.49-1.06-1,1.44-1.15.48-1.34-.47,0-.22-.3-.4-.46-.6-.05.17-.1.35-.16.53-.11.34.22,1-.3,1-.3,0-.67-.69-.8-1.13-1.09-3.66-2.36-7.29-3.1-11A10.86,10.86,0,0,1,9,89.93a25.62,25.62,0,0,1,1.34-3.32c.25-.38.49-.43.71-.33,1.51.69,1.29-.14,1.06-1.12-.1-.46-.16-1.31,0-1.4.71-.32.34.59.68.79a1.57,1.57,0,0,0,1.65.28c.68-.34.36-.81.37-1.31s-.89-1.12-.05-1.07c1.41.07,1.85-2.14,3.49-1.27.22.11,1-.68,1.13-.56,1.35,1,1.43-1.06,2.37-.94.28,0,.64,0,.82.12s.15.87.66.57c.75-.44-.17-.53-.23-.81-.14-.63.52-.61.81-.86s.65.14.51.36c-.8,1.16,2.15,1.78.4,3.06-.33.23-1.1-.42-.9.32.1.36,1.42.81,1.54.67,1-1.12.72.21,1.06.39s.61,2,1.57.42c.08-.12.34-.12.51-.18,0,.18.12.42,0,.53-.62.81-.17,1.39.36,2l-.58.25.15.16.42-.43c1.88.24,2.55,1.43,1.69,3,0,.07,0,.19,0,.28a2.22,2.22,0,0,0,.45,0c.56-.12,1.11-.27,1.67-.41-.84,1.31.37,3.38-1.12,4.17-.8.42-.46,1.86-1.69,1.52.11.53.24,1.07.85,1.27,0-.88.81-.63,1.26-.75,1.9-.51.64-2.1.78-3,.23-1.43,1.49-1.55,2-2.51.25-.48.77-.51.33-1.31a1.16,1.16,0,0,1,1.17-1.53A1.58,1.58,0,0,0,38,85.57a2.23,2.23,0,0,0-.4-2.45c-.09-.07-.23-.09-.31-.17a.55.55,0,0,1,.23-.86c1.64.47.85-2.39,2.47-1.79.34.13.85.1.8,0-.62-1.41,2.43,1,1.13-1.1a1.28,1.28,0,0,1,.16-.92c.55,0,.69.42.72.88,0,.61.16,1.58.72,1.39,1.06-.35-.48-.69-.23-1.2s-.56-.92,0-1.37c.3.44.63.87.9,1.34.18.31-.13,1.16.29,1,.6-.3,1.65-.67,1.23-1.83a2.66,2.66,0,0,1-.07-.75c.29.06.73,0,.84.21.74,1.17,2,1.29,3.13,1.57l.22,0c-.66,1.06.09,1.41.62,2.28,1,1.6-.27,3.86.45,5.86.33.91-.28,2.73,1.52,1.82,1.13-.57.74.4,1.09.54a2.35,2.35,0,0,1-.14.52c-2.59-.43-1.56,2.77-3.24,3.27-.14,0-.3.69-.2.79.47.42.45-.09.53-.37,1.24,1.14,2.24-2.69,3.67-.13.36.64,1.53-.75,2.31.07Zm-3.14,1a3.12,3.12,0,0,0-.71,0c-.27.08-.53.2-.79.3.23.12.46.33.68.32S52.9,95.43,53.33,95.11Zm-.15-1.66c-.1.15-.21.25-.23.36s.12.16.19.24a1.54,1.54,0,0,0,.29-.28S53.31,93.61,53.18,93.45Zm-19-1.16c-.12-.11-.18-.22-.26-.23s-.18.08-.27.13c.06.07.11.19.18.21S34,92.35,34.14,92.29ZM47.79,79.87c0,.06-.09.14-.07.18s.12.06.18.09S48,80,48,80,47.86,79.89,47.79,79.87Zm3.83,14.79,0-.08-.08,0a.19.19,0,0,0,0,.08Z" fill="#90a4d4"/><path d="M51.64,82.06l-.23.2c0-.09-.14-.17-.16-.27a.9.9,0,0,1,.08-.3Z" fill="#3c92d0"/><path d="M31.06,85.09c.1.13.2.21.2.29s-.1.17-.16.26c-.07-.07-.19-.14-.2-.22S31,85.24,31.06,85.09Z" fill="#3c92d0"/><path d="M56.49,94.16l.16-.37.19.18-.37.17Z" fill="#3c92d0"/><path d="M31.18,94.45c0-.07,0-.16.09-.18s.16,0,.17.08a.19.19,0,0,1-.07.17C31.32,94.54,31.24,94.48,31.18,94.45Z" fill="#3c92d0"/><path d="M39.8,109.42l.08,0s0,.07,0,.09-.06,0-.09,0Z" fill="#3c92d0"/><path d="M151.1,29.51l.45-.85c-.31.08-.75.07-.89.27S150.77,29.44,151.1,29.51Z" fill="#f06d4b"/><path d="M152.23,17c-.08,0-.1-.21-.13-.32-.66-2.89-1.4-5.77-1.95-8.68s-3.77-5.4-5.55-4c-2.76,2.22-5.91.68-7.79-.26a8.53,8.53,0,0,0-8.07-.17c-6.93,3.2-14.06,4.63-21.64,3.1-.09.06-.17.13-.26.18s0,0-.08-.06l.27-.16-1.36-.15a13.18,13.18,0,0,1-1.13,1.93c-.35.43-.42.79-.13,1.16a5.24,5.24,0,0,0,1,.8c.16-.34.32-.69.49-1,.08-.17.2-.32.3-.49a5.22,5.22,0,0,0,.18.56c.55,1.24,2.24,2.32,2.74,1.77,1.4-1.54,2.5-.18,3.5.05a9.48,9.48,0,0,1,3.73,2.11c.85.71,1.12,2.05,2.32,2.5-.89,1.74,0,3,1.16,4.16,1.43,1.46,3.61,2.29,3.82,4.72.68-.33.49,1.92,1.83.51.42-.45,3.23-1,3.31.83.06,1.31.87,2.07,1,3.17l.48.34c.64-.8,1.14,1.13,1.5.19a1.66,1.66,0,0,0-1.05-2.31c-.29-.11.19-1.94-.37-2.91.56,1.06,1.68,0,2.25.53a2.15,2.15,0,0,0,2.37.47c.84-.34.37-.92-.18-1.3.17-.2.31-.46.52-.57s.4.05.6.09c-.2,1.07,1,.9,1.36,1.52.13.23.63.5.75.43.43-.28-.17-.54-.14-.75.11-.67-.24-1.47.5-2,.1-.07.46,0,.46,0-.13,2,.54,1.29,1.27.43-.15.4-.51,1-.39,1.12.56.53.52-.41.91-.48s.4.22.33.48c-.25.85-.4,1.91.55,2.12.42.09,1.12-1.11,1.67-1.74.08-.08.06-.26.09-.39a2.69,2.69,0,0,0,.16.29c1,1.42,3.36.1,4,2.09l.32-.34.6-.58c.1.43.67.62.5,1.24-.39,1.42.8,1.24,1.35.95a1.51,1.51,0,0,1,1.5.1,8,8,0,0,0,1.07-4.79C152.74,21.39,156,18.8,152.23,17Zm-16.54-5.46a7.29,7.29,0,0,0-1.63.56c-.78.5-1.69,1.67-2.39,1.06-1.24-1.08-.57-2.61.25-3.73a3.39,3.39,0,0,1,5.6.85C138.14,11.94,136.61,11.51,135.69,11.51Zm6.68,13.62s0-.06,0-.08a.61.61,0,0,1,.07-.14l0,.08A.61.61,0,0,1,142.37,25.13Z" fill="#f06d4b"/><path d="M126.68,32.19c-.28,1.55-2.71,1.31-2.48,3.17,3.62,1,3.57-1.82,4.2-3.95C127.71,31.43,126.81,31.46,126.68,32.19Z" fill="#f06d4b"/><path d="M142.44,25a.61.61,0,0,1-.07.14s0-.06,0-.08a.61.61,0,0,1,.07-.14Z" fill="#47519d"/><path d="M107.1,6.68c-.09.06-.17.13-.26.18s0,0-.08-.06l.27-.16Z" fill="#47519d"/><polygon points="140.11 23.46 140.15 23.42 140.1 23.46 140.11 23.46" fill="#47519d"/><path d="M72.3,131.29l.13-.51.24.19-.38.32Z" fill="#47519d"/><path d="M73.36,142.33l.14-.12a.75.75,0,0,1,.09.15s0,.07-.06.07Z" fill="#47519d"/><path d="M53.33,95.11c-.43.32-.62.57-.82.57s-.45-.2-.68-.32c.26-.1.52-.22.79-.3A3.12,3.12,0,0,1,53.33,95.11Z" fill="#47519d"/><path d="M53.18,93.45c.13.16.27.29.25.32a1.54,1.54,0,0,1-.29.28c-.07-.08-.2-.17-.19-.24S53.08,93.6,53.18,93.45Z" fill="#47519d"/><path d="M34.14,92.29c-.16.06-.27.13-.35.11s-.12-.14-.18-.21c.09,0,.19-.13.27-.13S34,92.18,34.14,92.29Z" fill="#47519d"/><path d="M28.92,86.23l-.42.43-.15-.16.58-.25Z" fill="#47519d"/><path d="M47.79,79.86c.07,0,.17,0,.18.09s0,.13-.07.19-.16,0-.18-.09S47.76,79.93,47.79,79.86Z" fill="#47519d"/><path d="M51.62,94.66l-.07,0a.19.19,0,0,1,0-.08l.08,0Z" fill="#47519d"/><path d="M110.17,113c0-4.76-2.88-7.94-5-11.6l-.8.2c-.36.09-1.13,2.89-.83,3,1.92.85,1,3.07,2.06,4.33.21.24-.21.46-.61.41-.16,0-.35.32-.52.5.14.12.31.37.41.34.84-.22,1.1.17,1.31.94s-.59.71-.87.87c-1.7,1-2.09,2.33-.94,3.61a.72.72,0,0,1,0,1c-.58.93,1,1.66.29,2.64.83.61.75,2,2.31,2.12,1.19.12,1.54,1.69,1.94,2.82.11.31.34.79.22.94-.3.35-.6,0-.9-.21a.65.65,0,0,0-.58.2.59.59,0,0,0,.16.58c.83.39,1.26,1.41,2.3,1.43.18-1.17.39-2.34.51-3.51C111,120.06,110.16,116.54,110.17,113Z" fill="#9e96c9"/><path d="M102.76,152.16c-.59-.14-2.09.09-2.07-1.11,0-1.82-.92-1.11-1.77-.87s-1.21-.63-1.74-1.06a1.44,1.44,0,0,1,.27-.42c1.53.53.73-1.11,1.34-1.42-.53-.82-1.2-.23-1.81-.18-.5-.83-.93-1.71-2.14-1.7-2.32,0-.61-1.88-1.25-2.69a.84.84,0,0,1,.25-.34c1.24.43,1.81-.37,2.11-1.31.12-.37-.26-1.28-.48-1.3-1-.11-2.08-.72-2.8.52-.18.3-.54.22-.43,0a4.73,4.73,0,0,1,1.08-1.53c.3-.28.6-.85,1.19-.54.23.13.36.71.67.15.07-.12-.14-.48-.3-.65-1.59-1.66-1.44-3.07.46-4.41.41-.3.53-1,.79-1.54a6.29,6.29,0,0,1-1.23,0c-1.11-.25-1.45,1.08-2.33,1.09-.25,0-.53-.74-.87,0-.26.55-.44,1.25,0,1.66s.75.66.3.73-1.2,1.27-1.84.12c-.11.59-.27,1.15-1.08,1-.5.78-.85,1.12-1.59.05s-1.71-2.32-3.6-1.76a1.86,1.86,0,0,1-2.12-1.19c0-.1.14-.33.27-.39a4,4,0,0,0,1.34-5.14c-.61-1-1.06-1.79-2.57-1.74-.87,0-2.94.39-2.52-1.87a7,7,0,0,0-1.43-.15c-.23,0-.43.37-.64.57,2,.41,1.69,1,.13,1.67-.09,0-.1.29-.15.45s-.13.5-.19.75a3.64,3.64,0,0,1-.78-.79c-.15-.29-.17-.71-.57-.57-.22.07-.4.46-.47.74-.41,1.64-.41,1.63-1.59,1-.21-.12-.77.12-1,.36-.77.83-.25,1.88-.31,2.82,0,.77.61.25,1,.26-.15.38-.52.9-.39,1.11.42.66.66,1.26-.07,1.76a1.38,1.38,0,0,1-1.92-.35c-.17-.17-.68-.32-.71-.26-.48.72.23,1.34.24,2,0,.11.27.33.32.31,1.24-.55,1.76.66,2.61,1,.11.05.14.26.2.39-.18,0-.39.12-.54.06-2.43-.92.49,2.11-1.24,1.68l.39.44.45.46a3.58,3.58,0,0,1-.65,0c-.54-.08-.51-.1-.38.4a3.53,3.53,0,0,0,3.1,2.94c.13,0,.24.18.36.28a1.43,1.43,0,0,1-.41.17c-1.05.07-1.81.64-1.44,1.65a3.09,3.09,0,0,0,2.71,2.15c.3,0,.43-1,.81-.08.29.67-.14.75-.58.87-.61.16-1.06.54-.92,1.18s.82.54,1.37.45c1.16-.18,1.33.86,1.62,1.53a1.33,1.33,0,0,1-.39,1.71c-.33.26-.91-.52-.89.26s.7.59,1.13.64a14.58,14.58,0,0,0,2,0c.24,0,.59-.29.62.22,0,.31.07.8-.09.9-.44.28-.34-.19-.41-.42,0-.07-.16-.1-.25-.15a1.61,1.61,0,0,0-.17.54c0,1.17,1.38.83,1.84,1.59.19.31.71.25,1.06-.09.18-.18.42-.7.64-.08.14.4.44,1.26-.11,1.22-1.46-.11-.29,1.22-.94,1.44.11.1.23.3.31.28a14.75,14.75,0,0,0,1.76-.49c.22-.08.44-.43.59-.39.51.13.09.39,0,.62-.22.92.5,1,1.09,1.32s.3-.33.51-.37a2.38,2.38,0,0,1,.87-.1c.11,0,.15.38.23.58.21.47-.46.89.14,1.5,1.35,1.34,3.4,0,4.65,1.38,0,0,.17,0,.24,0,1.29-.55,2.11.11,2.84,1.07s1.14,1,2.27.39,1.89-1.14,1.93-2.47c0-.43.55-.33.77-.49a8.56,8.56,0,0,0,2.22-2.1c.29-.45-.69-.71-.94-1.05-.9-1.21-2.47-.2-3.33-1.21-.35.28-.68.85-1.05,0h0c-.21-1,.54-1.38,1.12-1.88l.61-.5a2.38,2.38,0,0,1,2.34.53c.88.63,1.91-.05,2.81-.34a1.23,1.23,0,0,0,.61-1.63C103.67,153.31,104,152.45,102.76,152.16ZM72.31,131.27l.12-.49.24.19Zm1.22,11.16-.17-.1.14-.12a.75.75,0,0,1,.09.15S73.54,142.43,73.53,142.43Zm9.17,13.1h0a1,1,0,0,0,0-.11A1,1,0,0,1,82.7,155.53Zm4.5-3.21c-.1-.63.29-1.3,1.1-1s2.59-1,2.77.69c.11,1.15.29,3.23-1.5,3.36C88.25,155.42,87.25,154.11,87.2,152.32Z" fill="#9e96c9"/></svg>