<svg id="afb45417-64d2-4857-9856-3c7e915d57f8" data-name="Layer 1" xmlns="http://www.w3.org/2000/svg" viewBox="0 0 440 169.29"><title>df-Logo-black-horizontal</title><path d="M9,115.13l.22,1.34Z" fill="#231f20"/><path d="M208.92,39.31a20.85,20.85,0,0,1,8.32,1.91V15.82a1.71,1.71,0,0,1,1.65-1.65h5a1.71,1.71,0,0,1,1.64,1.65V73.21a1.7,1.7,0,0,1-1.64,1.64h-2.6c-.78,0-1.31-.6-1.56-1.47l-.7-2.51a15.5,15.5,0,0,1-11,4.85c-9.19,0-16.21-8.23-16.21-18.2C191.84,47.38,199.3,39.31,208.92,39.31Zm.17,29a9.35,9.35,0,0,0,8.24-5.2V48.94a14.41,14.41,0,0,0-7.54-2.08c-5.81,0-9.89,4.76-9.89,10.66S203.55,68.27,209.09,68.27Z" fill="#231f20"/><path d="M251.65,39.31a15.61,15.61,0,0,1,16,16,20.46,20.46,0,0,1-.17,2.34,1.59,1.59,0,0,1-1.56,1.47H242.29a10,10,0,0,0,10,9.28A14.82,14.82,0,0,0,260,65.93c1-.61,1.65-1,2.35-.09l2.42,3.29a1.35,1.35,0,0,1-.17,2.26,20,20,0,0,1-12.83,4.33c-10.49,0-17.42-8.23-17.42-18.2C234.32,47.72,241.25,39.31,251.65,39.31Zm7.89,14.39a8.2,8.2,0,0,0-8-7.71,8.78,8.78,0,0,0-8.85,7.71Z" fill="#231f20"/><path d="M271.24,42.17c-.52-1.12,0-2,1.3-2h5.12a1.6,1.6,0,0,1,1.56,1l9,20.46h.09l9.36-20.46c.43-1,1.39-1,2.34-1h4c1.3,0,1.82.87,1.3,2L290,74.85a1.52,1.52,0,0,1-1.47.87h-.43a1.55,1.55,0,0,1-1.48-.87Z" fill="#231f20"/><path d="M314.58,47.38h-4.07a1.65,1.65,0,0,1-1.65-1.65v-3.9a1.59,1.59,0,0,1,1.65-1.65h4.07V29.43c0-10.75,6.42-16.12,14.74-16.12a15.56,15.56,0,0,1,9.88,3.47,1.61,1.61,0,0,1,.35,2l-2.17,3.9c-.43.78-1.3.87-2.17.26a11.77,11.77,0,0,0-5.72-2.08c-3.81,0-6.5,2.77-6.5,8.58V40.18h9.36A1.59,1.59,0,0,1,334,41.83v3.9a1.65,1.65,0,0,1-1.65,1.65H323V73.21a1.7,1.7,0,0,1-1.65,1.64h-5.11a1.7,1.7,0,0,1-1.65-1.64Z" fill="#231f20"/><path d="M355.76,39.31a15.62,15.62,0,0,1,15.95,16,20.48,20.48,0,0,1-.18,2.34A1.59,1.59,0,0,1,370,59.16H346.39a10,10,0,0,0,10,9.28,14.89,14.89,0,0,0,7.72-2.51c1-.61,1.64-1,2.34-.09l2.42,3.29a1.35,1.35,0,0,1-.17,2.26,20,20,0,0,1-12.83,4.33c-10.49,0-17.42-8.23-17.42-18.2C338.42,47.72,345.35,39.31,355.76,39.31Zm7.88,14.39a8.19,8.19,0,0,0-8-7.71,8.77,8.77,0,0,0-8.84,7.71Z" fill="#231f20"/><path d="M377.94,70.35,379.76,67a1.49,1.49,0,0,1,2.17-.44A18,18,0,0,0,390,68.79c2.6,0,4.25-1,4.25-3,0-2.34-1.91-3.47-6.67-5.63-5.38-2.35-9.89-5.64-9.89-11.36,0-4.34,3.56-9.54,11.88-9.54A19.44,19.44,0,0,1,399.79,42a1.93,1.93,0,0,1,.69,2.51l-1.56,3a1.83,1.83,0,0,1-2.25.7,19.86,19.86,0,0,0-7.11-1.82c-2.95,0-3.9,1.3-3.9,2.6,0,2.25,2.17,3.2,5.55,4.68,6.32,2.77,11.53,5.46,11.53,12,0,5.37-5.12,10.14-12.83,10.14a18.23,18.23,0,0,1-11.45-3.55A1.47,1.47,0,0,1,377.94,70.35Z" fill="#231f20"/><path d="M413.31,47.38h-3.64A1.65,1.65,0,0,1,408,45.73v-3.9a1.59,1.59,0,0,1,1.65-1.65h3.64V30.56A1.71,1.71,0,0,1,415,28.91l4.94-.09a1.63,1.63,0,0,1,1.56,1.65v9.71h8.84A1.6,1.6,0,0,1,432,41.83v3.9a1.66,1.66,0,0,1-1.65,1.65h-8.84V64.54c0,2.95,1.13,3.47,2.77,3.47a14.14,14.14,0,0,0,5.29-1.56,1.29,1.29,0,0,1,2,.78L433.07,71a1.43,1.43,0,0,1-.78,2.08,26.54,26.54,0,0,1-10.14,2.6c-6.85,0-8.84-4.16-8.84-10.31Z" fill="#231f20"/><path d="M202.86,89.78a.61.61,0,0,1,.53-.44h.48a.6.6,0,0,1,.5.32l6.21,15.18h.12l6.17-15.18a.58.58,0,0,1,.51-.32h.47a.61.61,0,0,1,.54.44l3.65,20a.5.5,0,0,1-.53.68h-1.93A.62.62,0,0,1,219,110l-2.2-13.27h-.08l-5.35,13.66a.51.51,0,0,1-.5.33h-.54a.52.52,0,0,1-.5-.33l-5.38-13.66h-.12L202.21,110a.58.58,0,0,1-.54.42h-1.93a.53.53,0,0,1-.56-.68Z" fill="#231f20"/><path d="M223.62,109.65l9.11-20a.72.72,0,0,1,.51-.32h.3a.72.72,0,0,1,.5.32l9.06,20a.53.53,0,0,1-.51.77h-1.87A.69.69,0,0,1,240,110l-1.84-4.06h-9.71c-.6,1.36-1.22,2.7-1.81,4.06a.75.75,0,0,1-.69.45h-1.87A.52.52,0,0,1,223.62,109.65Zm13.45-6.3-3.65-8.13h-.15l-3.62,8.13Z" fill="#231f20"/><path d="M246.07,90.2a.56.56,0,0,1,.53-.57h6.83a10.4,10.4,0,1,1,0,20.79H246.6a.56.56,0,0,1-.53-.56Zm7,17.4a7.57,7.57,0,0,0,0-15.14H249.1V107.6Z" fill="#231f20"/><path d="M268.13,90.2a.59.59,0,0,1,.57-.57h2a.59.59,0,0,1,.56.57v19.66a.59.59,0,0,1-.56.56h-2a.59.59,0,0,1-.57-.56Z" fill="#231f20"/><path d="M275.65,107.42c.26-.38.5-.83.77-1.22a.67.67,0,0,1,1-.23c.18.14,2.46,2,4.75,2,2.05,0,3.35-1.24,3.35-2.76,0-1.78-1.54-2.91-4.48-4.12s-5.4-2.85-5.4-6.3c0-2.32,1.78-5.49,6.5-5.49a10,10,0,0,1,5.49,1.75.7.7,0,0,1,.18,1l-.74,1.13a.7.7,0,0,1-1,.29A9.29,9.29,0,0,0,282,92c-2.49,0-3.35,1.57-3.35,2.67,0,1.69,1.3,2.73,3.77,3.74,3.44,1.4,6.38,3,6.38,6.65,0,3.09-2.76,5.62-6.62,5.62a9.57,9.57,0,0,1-6.38-2.35C275.56,108.13,275.35,107.93,275.65,107.42Z" fill="#231f20"/><path d="M302.08,89.34a10.69,10.69,0,1,1-10.66,10.72A10.68,10.68,0,0,1,302.08,89.34Zm0,18.41a7.72,7.72,0,1,0-7.7-7.69A7.72,7.72,0,0,0,302.08,107.75Z" fill="#231f20"/><path d="M317,89.87a.56.56,0,0,1,.57-.53h.74l12.89,14.9h0v-14a.57.57,0,0,1,.56-.57h1.9a.59.59,0,0,1,.57.57v20a.56.56,0,0,1-.57.54h-.77L320,95.39h0v14.47a.56.56,0,0,1-.56.56h-1.87a.59.59,0,0,1-.57-.56Z" fill="#231f20"/><path d="M340.39,106.59c1.1,0,2.46.74,2.46,3.3a7.66,7.66,0,0,1-2.94,5.93c-.27.24-.5.24-.71,0l-.45-.44a.51.51,0,0,1,.15-.74,5.52,5.52,0,0,0,2.11-4,3.3,3.3,0,0,1-.74.12,2.07,2.07,0,0,1-2-2A2.12,2.12,0,0,1,340.39,106.59Z" fill="#231f20"/><path d="M351.64,90.35a.52.52,0,0,1,.54-.72h2a.61.61,0,0,1,.53.42l3.59,13.63h.12l4.84-14a.55.55,0,0,1,.51-.32h.53a.55.55,0,0,1,.51.32l4.9,14h.11l3.54-13.63a.6.6,0,0,1,.53-.42h2a.52.52,0,0,1,.54.72l-5.62,20a.56.56,0,0,1-.53.42h-.47a.57.57,0,0,1-.51-.33l-5.23-14.76h-.14l-5.14,14.76a.57.57,0,0,1-.51.33h-.47a.58.58,0,0,1-.54-.42Z" fill="#231f20"/><path d="M380.18,90.2a.59.59,0,0,1,.57-.57h2a.59.59,0,0,1,.56.57v19.66a.59.59,0,0,1-.56.56h-2a.59.59,0,0,1-.57-.56Z" fill="#231f20"/><path d="M151.1,29.46c-1.13,2.62-2.93,4.83-4.44,7.22-1.27,2-3.18,3.89-2.42,6.7.15.57-.29.9-.78,1-4.46,1.17-7.24,4.81-10.77,7.33a4.15,4.15,0,0,1-2.48,1c-1.84-.16-2.89.91-4.06,2-.3.28-.89.63-1.13.52-2.76-1.36-3.8,1-5.15,2.43-2,2.09-4.11,3.94-7.26,3.94-.66,0-1.32.31-1.73-.53a2.37,2.37,0,0,1,.24-2.15c.22-.56,1.69-.91.72-1.53s-2.47-.87-3.16.46c-1.35,2.56-3.47,4.32-5.6,6.12-1,.88-2,1.72-3.5,1.11-.9-.36-.55-1.28-.6-1.87-.13-1.31,1-2,1.92-2.68A17.41,17.41,0,0,0,103,59.06c.56-.62,2.33-1,1.64-1.7a5.17,5.17,0,0,0-4.86-1.83c-1.25.3-1.66,1.34-1.77,2.54-.08.87-.2,1.73-.35,2.58s-.62,1.7-1.68,1.7-1.33-1.05-1.59-1.82a6.63,6.63,0,0,1-.28-2.47c.16-2,.1-3.46-2.7-2.93-1.14.22-2-1.13-1.6-2.32a81.3,81.3,0,0,0,3.75-25.56c0-3.24.17-6.79,3.44-9,.58-.38.42-1,.32-1.54-.69-3.73,1.88-6.11,3.79-8.64,1-1.26,2.81-1.66,4.54-1.68a13.29,13.29,0,0,1-1.13,1.94c-.35.42-.42.79-.13,1.15a5.71,5.71,0,0,0,1,.81c.16-.35.32-.69.49-1a4,4,0,0,1,.3-.49c.06.18.1.37.18.55.55,1.24,2.24,2.32,2.74,1.77,1.4-1.54,2.5-.18,3.5.06a9.58,9.58,0,0,1,3.73,2.1c.85.71,1.12,2.05,2.32,2.5-.89,1.75,0,3,1.16,4.17,1.43,1.45,3.61,2.28,3.82,4.71.68-.33.49,1.93,1.83.52.42-.45,3.23-1,3.31.83.06,1.3.87,2.07,1,3.16-.37.78-1.39,1.15-1.37,2.17-.69,0-1.59.06-1.72.78-.28,1.55-2.71,1.31-2.48,3.17-.64-.21-1.68-.77-1.85-.57a2.87,2.87,0,0,0-.22,3.13,1.54,1.54,0,0,0,2.24.72c.9-.39,1.85-.68,2.72-1.12.64-.31,1.61-.21,1.81-1.15.48-2.26.9-4.52,1.35-6.79.64-.79,1.14,1.14,1.5.19a1.65,1.65,0,0,0-1.05-2.3c-.29-.11.19-1.95-.37-2.92.56,1.07,1.68,0,2.25.54a2.15,2.15,0,0,0,2.37.46c.84-.33.37-.92-.18-1.3.17-.19.31-.45.52-.56s.4.05.6.08c-.2,1.08,1,.91,1.36,1.52.13.23.63.51.75.43.43-.28-.17-.53-.14-.75.11-.66-.24-1.47.5-2,.1-.06.46.05.46.06-.13,2,.55,1.27,1.29.4h0c-.14.4-.52,1-.4,1.16.56.53.52-.42.91-.49s.4.22.33.49c-.25.84-.4,1.9.55,2.11.42.09,1.12-1.11,1.67-1.73.08-.09.06-.26.09-.4a2.85,2.85,0,0,0,.16.3c1,1.41,3.36.09,4,2.08l.32-.33.6-.59c.1.43.67.62.5,1.24-.39,1.43.8,1.25,1.35,1a1.49,1.49,0,0,1,1.5.1l-.17.3c-.31.08-.75.07-.89.27S150.77,29.39,151.1,29.46ZM139.78,26l-.09,0a.2.2,0,0,0,0,.11l.15,0Z" fill="#231f20"/><path d="M99.83,69.75c.92-2.53,3.31-3.11,5.43-3.61,6.69-1.57,13.43-.33,20.18-.11,5.67.18,10.9,2.18,16.41,2.87,1.19.15,2.41.07,3.62.1.12.81,1.75.35,1.35,1.61h0a6.79,6.79,0,0,1,3.37,3.76c.15.44.53.72.66,1,.86,2.11,3.83,2,4.45,4.56.3,1.24,1.89,2.27,3,3.19,1.42,1.11.26,3.91,3,4.17,2.08.2,3,2.52,5,3.1.5.15.63.4.84.93.85,2.07,2.56,3.49,4.23,4.91-.7,2.69.22,5.06,1.38,7.41.7,1.42-1.61,6.32-3.21,7.13-2.65,1.33-5.13,3.16-7.92,4-5.86,1.73-11.21,5.69-17.88,4.07-7.77-1.9-13.94-5.65-16.42-13.73-1.8-5.84-4.47-11.5-4.15-17.86a21.42,21.42,0,0,1,.79-6.34c1.08-3-.36-3.84-3.08-4.32-3.89-.69-7.68-1.92-11.56-2.69a33,33,0,0,0-5.46-.21l.4-.28-.18-.22-.21.51h-.31l-.34-.23-.08-.08c-.37-.24-1-.46-1.07-.73-.2-2.54-.17-2.53-2.15-2.32-.1,0-.23-.24-.34-.37a.67.67,0,0,1,.15-.14A.08.08,0,0,0,99.83,69.75Zm43.64,37.77c-.16.14-.48.32-.46.43.45,2.11-.46,2.74-2.43,2.31-.1,0-.42.42-.4.44.46.51.95,1,1.45,1.46,0,0,.35-.13.34-.16-.4-1.56,1.32.32,1.2-.74.19.27.37.55.57.81a2.32,2.32,0,0,0,2.2.7c.36,0,.34-1-.34-1.49-.24-.17,0-.93,0-1.42a3.23,3.23,0,0,0,.7.64c.8.39,1.44,1.87,2.53.43.13-.18-.22-.74.35-.62s.51.43.23.83-.1.59.31.7c.25.06.62,0,.43-.26-.51-.78.67-2-.23-2.27-1.42-.46-2.92-1.08-4.48-.65-.35.09-.5.78-1,.21s-1.28-.45-.9-1.37l.36-.2-.14-.14Zm.24-3.13.07.31.1,0-.18-.25c.07-.48-.76-1.51.53-1.24s1.41-.61,1.63-1.15.42-1.88,0-2.23c-1.33-1.25-1.87-2.28-.46-3.86.32-.35-.05-1.34-.12-2,0,0-.12-.06-.19-.1-.08.48-.17,1-.23,1.44-.22,1.57-2.16,2-2.32,3.64-.19-.1-.36-.27-.55-.28-.48,0-1.2-.22-1.4,0-.64.78.49.54.63.88a2.65,2.65,0,0,1,.22,1.11c0,.3-.36.38-.6.54-1.15.82-1-.47-1.49-.79l-.1,0,.11,0c-.26.65-.51,1.3-.77,2-.16.4-.33.81-.49,1.22,0-.49,0-1,.05-1.46s0-.87.05-1.3a.88.88,0,0,0-.26.09c-1.19,1.13-2.4,2.16-4.21,1.38-.16.61-1.18-.21-1.26.9a6.08,6.08,0,0,0,.4,2,3.12,3.12,0,0,0-.8.14c-.37.15-.37.49,0,.56.57.12,1.27,1.46,1.8-.25.16-.5,1.29-1.51,2.38-.08.34.44-1.27,2.54,1,1.46a.58.58,0,0,1,0,.23c-.72,1.58,1.4,1.73,1.47,2.91.13,0,.39-.12.38-.16C138.88,106.64,143.49,107.31,143.71,104.39Zm.5-9.45c-.09-.63-.05-1.19-.61-1.21-.32,0-.93.1-.81.63a6.71,6.71,0,0,0,.7,1.52Zm1,12.69-.56-.49a2.59,2.59,0,0,0-.4.65c0,.1.22.27.33.41Zm1.15-14.89c-.27-.15-.4-.29-.55-.3s-.24.13-.36.2c.1.14.18.37.31.4S146.11,92.9,146.41,92.74Zm-3.93,16.64c.1-.13.21-.22.21-.3s-.1-.17-.16-.26c-.07.08-.19.14-.2.22S142.41,109.22,142.48,109.38Zm-.63-1.73c0-.06.08-.13.06-.18s-.11-.06-.17-.08-.09.13-.07.18S141.78,107.63,141.85,107.65Zm28.61-11.07a1.17,1.17,0,0,0,.14-.27s-.13-.12-.17-.1a.8.8,0,0,0-.26.16Z" fill="#231f20"/><path d="M100.25,86.68c1.5,2.91,3.69,5.49,3.74,9,0,1.93-.46,4,1.19,5.66l-.8.19c-.36.1-1.13,2.89-.83,3,1.92.85,1,3.08,2.06,4.34.21.23-.21.45-.61.41-.16,0-.35.32-.52.5.14.12.31.36.41.34.84-.22,1.1.17,1.31.93s-.59.72-.87.88c-1.7,1-2.09,2.32-.94,3.61a.7.7,0,0,1,0,1c-.58.93,1,1.67.29,2.65.83.6.75,2,2.31,2.11,1.19.12,1.54,1.69,1.94,2.82.11.32.34.8.22,1-.3.34-.6,0-.9-.21-.11-.08-.49.05-.58.2a.58.58,0,0,0,.16.57c.83.4,1.26,1.41,2.3,1.43-2.32,5.74-.31,12.18-2.91,17.86-.91,2-.53,3.59,0,5.71.71,2.72-1.05,5.69-2.74,8.12-2.22,3.2-4.56,6.34-8.46,7.75a2.15,2.15,0,0,1-2.41-.46c-2.3-2.28-5.55-1.93-8.26-3-4.87-2-8.86-5.1-11.12-9.9-3-6.33-5.76-12.78-6.16-19.94-.12-2.23.15-4.11,2.17-5.69,1-.82-.18-2.5-.26-3.8,1.37-2.45,3-4.13,6-2.16a.8.8,0,0,0,1.33-.6c.08-.61.55-.39.8-.17,1.47,1.28,3.19.56,4.81.67.66,2,1.24,4.13,2,6.14,1.13,3,1.92,6.15,4.11,8.63-.5.78-.85,1.12-1.59.06s-1.71-2.33-3.6-1.77a1.85,1.85,0,0,1-2.12-1.19c0-.09.14-.32.27-.39a4,4,0,0,0,1.34-5.14c-.61-1-1.06-1.79-2.57-1.74-.87,0-2.94.4-2.52-1.87a7,7,0,0,0-1.43-.15c-.23,0-.43.38-.64.58,2,.41,1.69,1,.13,1.67-.09,0-.1.29-.15.44s-.13.5-.19.76a3.47,3.47,0,0,1-.78-.8c-.15-.28-.17-.71-.57-.57-.22.08-.4.47-.47.75-.41,1.63-.41,1.62-1.59,1-.21-.12-.77.12-1,.36-.77.82-.25,1.87-.31,2.81s.63.24,1,.26h0c-.14.38-.52.91-.39,1.12.42.66.66,1.26-.07,1.76a1.38,1.38,0,0,1-1.92-.34,1.15,1.15,0,0,0-.71-.27c-.48.73.23,1.35.24,2.05,0,.11.27.33.32.3,1.24-.55,1.76.66,2.61,1,.11.05.14.26.2.4-.18,0-.39.11-.54.06-2.43-.92.49,2.1-1.24,1.68l.39.43.45.47a3.56,3.56,0,0,1-.65,0c-.54-.08-.51-.1-.38.4a3.52,3.52,0,0,0,3.1,2.94c.13,0,.24.18.36.28a1.43,1.43,0,0,1-.41.17c-1.05.08-1.81.64-1.44,1.65a3.12,3.12,0,0,0,2.71,2.16c.3,0,.43-1,.81-.09.29.68-.14.76-.58.87-.61.17-1.06.54-.92,1.19s.82.53,1.37.45c1.16-.19,1.33.86,1.62,1.53a1.33,1.33,0,0,1-.39,1.71c-.33.25-.91-.53-.89.26s.7.59,1.13.63a13.12,13.12,0,0,0,2,0c.24,0,.59-.28.62.22,0,.31.07.81-.09.91-.44.27-.34-.2-.41-.43,0-.07-.16-.1-.25-.15a1.68,1.68,0,0,0-.17.54c0,1.17,1.38.83,1.84,1.59.19.32.71.26,1.06-.08.18-.19.42-.7.64-.08.14.4.44,1.26-.11,1.22-1.46-.11-.29,1.21-.94,1.44.11.1.23.3.31.28a16.94,16.94,0,0,0,1.76-.5c.22-.07.44-.43.59-.39.51.13.09.39,0,.63-.22.92.5,1,1.09,1.31s.3-.33.51-.37a2.91,2.91,0,0,1,.87-.1c.11,0,.15.39.23.58.21.48-.46.9.14,1.5,1.35,1.35,3.4,0,4.65,1.39,0,0,.17,0,.24,0,1.29-.56,2.11.1,2.84,1.06s1.14,1,2.27.4,1.89-1.15,1.93-2.48c0-.43.55-.33.77-.48A8.44,8.44,0,0,0,101.7,160c.29-.45-.69-.7-.94-1-.9-1.22-2.47-.2-3.33-1.21.22-.79.45-1.58.68-2.37a2.41,2.41,0,0,1,2.34.53c.88.64,1.91,0,2.81-.34a1.23,1.23,0,0,0,.61-1.63c-.2-.64.15-1.5-1.11-1.8-.59-.14-2.09.09-2.07-1.1,0-1.83-.92-1.12-1.77-.88s-1.21-.63-1.74-1.06c0,0,.23-.43.27-.41,1.53.53.73-1.12,1.34-1.43-.53-.82-1.2-.23-1.82-.18h0c-.5-.83-.93-1.72-2.14-1.71-2.32,0-.61-1.88-1.25-2.68,0,0,.21-.36.25-.34,1.24.43,1.81-.38,2.11-1.31.12-.37-.26-1.28-.48-1.31-1-.11-2.08-.72-2.8.53-.18.29-.54.22-.43,0a5,5,0,0,1,1.08-1.53c.3-.27.6-.85,1.19-.53.23.12.36.7.67.15.07-.13-.14-.48-.3-.66-1.59-1.65-1.44-3.07.46-4.41.41-.29.53-1,.79-1.54a6.29,6.29,0,0,1-1.23,0c-1.11-.25-1.45,1.07-2.33,1.09-.25,0-.53-.74-.87,0-.26.56-.44,1.25,0,1.67s.75.66.3.72-1.2,1.27-1.84.12c.44-6.41.85-12.82,1.36-19.23.14-1.86.88-3.76-1.77-4.58-.59-.18-1.12-1-1.37-1.7-1.33-3.47-1.48-7.13-1.72-10.78,0-.78.1-2-.32-2.24-.68-.46-.85,1-1.58,1.08-1,0-2.15.19-1.56-1.51.23-.65-.47-.83-.81-1.18s-2.33-.69-.26-1.2c2.79-.69,2.29-3.84,4.47-5.08,2.77-1.58,5.22-4,8.68-2.42A5.81,5.81,0,0,0,100.25,86.68Z" fill="#231f20"/><path d="M61.63,6.63c3-.85,5.89.87,8.91.12,1.31-.33,1.44.94,1.88,2,.9,2.18,3.48,2.3,5.25,3.46a11.1,11.1,0,0,1,4.13,4.44c2.68,5.52,3,11.5,3.54,17.44.1,1-1,1.24-.89,2.21a69.14,69.14,0,0,0,2.47,12.93,3.36,3.36,0,0,1-1.61,3.89c-1.06.74-2-.26-2.79-1.25-1.7-2-2.25-4.53-3.21-6.87-.22-.54-.37-1-1.06-.73a3.9,3.9,0,0,0-.86.25c-1.7,1-1.83,3-2.65,4.5a12.76,12.76,0,0,0-.87,4.11c0,.27.95.48.41.83s-.66,1.47-1.78,1c-.27-.1-1.3-.62-1.4.52l-.06,0,.06-.06a4.27,4.27,0,0,0,.71-.07c.63-.18,1,.56.76.57a56.58,56.58,0,0,1-6.37-.29,4.15,4.15,0,0,1,0-.76c0-.47-.15-.59-.66-.48a1.84,1.84,0,0,1-2.31-1.36l.05-.06-.05.06c-1.27.4-2.67,1.31-3.85.67a5.46,5.46,0,0,0-3.82-.43h0l-.2-.5c-1.93,1.14-2.41.11-2.51-1.62A1.34,1.34,0,0,0,51.75,51a3.15,3.15,0,0,1-3.46.38c-1.16-.54-2.18-2.08-3.81-1,.23-2-2.22-2.43-2.58-4.1-.25-1.18-1.55-1.27-1.8-.82-.73,1.33-1,.44-1.49,0-1.12-1-.87-2.25-.51-3.42.1-.34.77-.56.45-1.13s-.74-.4-1.24-.37-1.11.31-1.39-.31c-.12-.28-.06-1,.08-1,1.5-.56.84-1.15.14-1.88-.2-.21-.06-.74-.09-1.12,0-.17.23-.54-.25-.4-.23.06-.35.93-.55.29s-1.14-1.13-.21-1.87a3.64,3.64,0,0,0,1.08-2.79c.18-1.93-1.29-3.79-.2-5.74.3-.54,0-.65-.5-.93-1.36-.78-.8-2.41-1.3-3.6-.06-.15.31-.47.47-.71-.29,0-.59.05-.88.09-.45.07-1.1.37-1.26-.17a1.36,1.36,0,0,1,.61-1.57c.47-.25,1,.25,1.37.36,1,.28,2.6-.68,2.82,1.44A2.94,2.94,0,0,0,39,22.6c1.86.39,2.43,1,1.84,2.85a2.32,2.32,0,0,0,0,.65c.19-.12.37-.25.57-.35s0-1,.67-.72c.28.13.43.62.55,1,.44,1.3.85,2,1.29,0,.76.25.84,2,2.17,1,.11-.1.11-.38.1-.57,0-.5.09-1,.66-.88s.24.64.23,1-.37.75.19.88.54-.38.62-.76a2.54,2.54,0,0,1,.33-.71,2.64,2.64,0,0,1,.29.11c-1.14,2,1.72,1.85,1.78,3.25,0,.36.43.95.77.63.68-.65,1.13.15,1.67.07-.12,1.1,1.37,1.52,1.09,2.75-.24,1,.29,2.81.73,2.6,2-1,1,.7,1.24,1.2s.4,1,1,1.1c.09,0,.34-.13.33-.17-.49-2.63,1.5-.51,2.11-1,0,0,.56.15.62-.18a2,2,0,0,0-.08-1.11c-.07-.18-.56-.41-.65-.34-.91.67-.83,0-.84-.57A.64.64,0,0,0,58,33.9c-.29.16-.69.85-.86.17a3.72,3.72,0,0,1,.39-2.13c.25-.6.64.12,1,.11a3.65,3.65,0,0,1,.94.22,5,5,0,0,1-.35-.83c-.29-1.21-1.06-2.24-.91-3.68a11.76,11.76,0,0,1,.18-2.34c.06-.19-.07-.43-.11-.65a4,4,0,0,1,1,0c.12,0,.24.39.23.59-.08,1.08-.28,2.16-.29,3.25a13.87,13.87,0,0,0,.35,2.27,18.54,18.54,0,0,0,1-1.81c.43-1,1.09-1,1.9-.51A5,5,0,0,1,63,29a2.65,2.65,0,0,0,.1-.87c-.1-.42-.3-.83.36-.85.39,0,1,.16.84.62-.3,1.23.83,2,.82,3.13,0,.22.07.55.41.24,1-.92,1.42-.75,1.83,1,.68,2.91,2.66-.35,3.69.82.09-.14.26-.28.27-.42,0-.81,1-.62,1.25-1.22.33.26.85.47,1,.8.28.86-.75.27-.91.69a2.66,2.66,0,0,0-.18,1c0,.16.33.45.46.43.55-.1,0-.59.17-.75.57-.53,1.37-.89,1.17-1.9.45.53,1.09,1,1.3,1.61s-.25,1.25-.78,1.7a3.94,3.94,0,0,1-.48.31c.19.11.55.22.55.33,0,1.68,4.08-.21,2.53,2.85,0,0,.16.22.18.21,2-1.09,2.61.68,3.57,1.69.53.56.73,1-.36,1.27-.67.18-1.73.61-1.65,1.48.1,1,1.13.66,1.62.37.88-.52,3.68.88,2.26-2.1,0,0,.15-.12.14-.17-.16-1.35-.3-2.69-.52-4,0-.14-.48-.21-.72-.33-1.49-.7-2.66-1.4-.11-2.32.51-.18.89-.8.32-1.24a1.19,1.19,0,0,1-.15-1.84c1.7-2.24-2.48-2.86-1.27-4.9-1.7-.84-3-2.73-4.89-2.75-1,0-2.07,1.53-3.36.28-.48,1.07-1.55.89-2.42,1.15l-1.09-2.85c1.5,1.07,2.17-.91,3.37-.92-.19-.63-.43-1.25-.56-1.89-.4-2-.53-3.91,1.44-5.25.26-.17.61-.31.26-.72s-.68-.47-1-.1c-1.36,1.51-2,.43-2.46-.75-.69-1.85-1.79-3.27-3.84-3.41-.83-.06-1.16-.05-1.33-1-.24-1.2-.9-2-2.32-1.21C62.11,7.38,61.51,7.38,61.63,6.63ZM59,38.17l-.46-.75c-.1.18-.3.37-.28.54a3.92,3.92,0,0,0,.3.85Zm15.47-4.09-.3-.26c0,.1-.13.21-.1.28a1.4,1.4,0,0,0,.26.34ZM59,33.22l-.24.25c.08.06.16.18.24.18s.15-.11.23-.18ZM37.77,39.05c-.05.12-.13.21-.11.24a1,1,0,0,0,.23.22c0-.07.1-.15.08-.2A1.07,1.07,0,0,0,37.77,39.05ZM70,54.62l0-.08H70ZM39.15,43.8l0-.09,0,.09Z" fill="#231f20"/><path d="M61.94,84.28a77,77,0,0,0-2.47,8.81,18.82,18.82,0,0,1-2.38,6.71c-1.42,2.32-2.65,4.92-5.13,6.61-2,1.35-3.73,3.1-6,4.12-.21.1-.44.36-.62.33-3.61-.78-5.12,1.82-7.17,4-3.77,4.06-7.7,4.24-12.7,1.76a11.67,11.67,0,0,0-6.43-1.28c-.23,0-.6.07-.68,0-1.71-2.48-5.08-2.28-7-4.23-1.54-1.58-1.46-4.08-2.15-6.16L9,103.61C7.4,98.48,5.68,93.36,7.57,87.91a21.45,21.45,0,0,1,7-9.34,74.74,74.74,0,0,0,5.82-6.1,5,5,0,0,1,1.65.37c1,.64,2.25-.91,3.05.49,0-1.17,1.62-.61,1.74-1.68,0-.22.45-.39.69-.59.11.15.31.29.33.46.08.72.37,1.56,1.1,1.43a7.19,7.19,0,0,0,3.32-1.31c.32-.27,1.33.39,1.11-.76-.31-1.68,1.13-2.55,2.11-3.48.48-.45,1.6-.87,1.9.71.16.84-.55,2.34.47,2.44,1.77.17,3.5,1.61,5,1.08,2.1-.75,3.79-.12,5.65.31.71.17,1.91-.06,2.1.3.91,1.71,1.69.79,2.64.15.62-.41,2-1.16,1.7.25a3,3,0,0,0,1.53,3.59c1.36.7,1.62,2.85,3.73,2.52,1.22-.19,1.64,1.72,1.45,1.87C59.61,82.11,62,83.08,61.94,84.28Zm-33,1.9h0c-.53-.58-1-1.17-.36-2,.08-.1,0-.35,0-.53-.17.06-.43.07-.51.19-1,1.6-1.12-.19-1.57-.43s-.1-1.51-1.06-.39c-.12.14-1.44-.31-1.54-.67-.2-.73.57-.08.9-.32,1.75-1.27-1.2-1.9-.4-3.06.14-.21-.22-.59-.51-.35s-.95.23-.81.85c.06.28,1,.37.23.81-.51.3-.43-.38-.66-.56s-.54-.1-.82-.13c-.94-.11-1,1.9-2.37.94-.16-.11-.91.68-1.13.56-1.64-.86-2.08,1.35-3.49,1.27-.84,0,.05.69.05,1.07s.31,1-.37,1.31a1.57,1.57,0,0,1-1.65-.27c-.34-.2,0-1.11-.68-.79-.19.08-.13.93,0,1.4.23,1,.45,1.81-1.06,1.12-.22-.11-.46-.06-.71.33A25.06,25.06,0,0,0,9,89.88a10.85,10.85,0,0,0-.78,6.94c.74,3.73,2,7.35,3.1,11,.13.44.5,1.12.8,1.14.52,0,.19-.62.3-1,.06-.18.11-.36.16-.54.16.2.42.38.46.6.19,1,.32,1.91,1.34.47.47.43,1.7.1,1.49,1.07-.28,1.2.55,1.21,1.15,1.3.77.12,2.2-1.27,1.92,1.06,0,.18,3.25-.67,2.5,2.09l.29.11c.56-1.34,1.15-1.28,2.08-.25.2.22,1.38.07,1.83-.65s.92-.38,1.3.08c1.73,2.08,3.65,2.15,5.83.71a2,2,0,0,1,1.56-.14c.49.17.33,1.16,1.14,1.17,1.43,0-.25-.67.24-1,1.23-1,.36-3.69,3-3.54-.55-2.16,2.58-2.28,2.38-4.26,0-.09.35-.22.53-.33.23,1.58,1.73.93,2.58,1.42.3.18.28,1.43,1,.47.32-.45.91-1.41-.47-1.54a1.16,1.16,0,0,1-.09-.39c.92-.27,1.85-2.23,2.77,0,.2.45.34,0,.46,0,1.16.18,1.15-2.38,2.82-1.2.16.11,1-.74,1.5-1.16a.46.46,0,0,0-.14-.34c-.22-.08-.6.57-.66-.1,0-.17.45-.56.67-.54,1.44.1,1.59-.54,2.14-1.87.89-2.15,2.56-4,2.35-6.54l.37-.18-.19-.18-.16.37c-.78-.82-2,.58-2.31-.07-1.43-2.55-2.43,1.28-3.67.14-.08.27-.06.78-.53.36-.1-.09.06-.75.2-.79,1.68-.5.65-3.69,3.24-3.27a2.27,2.27,0,0,0,.14-.51c-.35-.15,0-1.12-1.09-.55-1.8.91-1.19-.9-1.52-1.82-.72-2,.52-4.25-.45-5.85-.53-.87-1.28-1.23-.62-2.29l-.22,0c-1.16-.27-2.39-.39-3.13-1.56-.11-.18-.55-.15-.84-.22a2.66,2.66,0,0,0,.07.75c.42,1.16-.63,1.54-1.23,1.84-.42.21-.11-.65-.29-1-.27-.46-.6-.89-.9-1.34-.59.45.19.94,0,1.38s1.29.84.23,1.2c-.56.19-.68-.79-.72-1.39s-.17-.9-.72-.88a1.27,1.27,0,0,0-.16.92c1.3,2.06-1.75-.31-1.13,1.1,0,.1-.46.12-.8,0-1.62-.61-.83,2.26-2.47,1.78a.55.55,0,0,0-.23.86c.08.08.22.1.31.18a2.23,2.23,0,0,1,.4,2.45,1.58,1.58,0,0,1-1.71,1.37,1.15,1.15,0,0,0-1.17,1.52c.44.8-.08.84-.33,1.32-.49,1-1.75,1.07-2,2.5-.14.87,1.12,2.47-.78,3-.45.12-1.23-.13-1.26.75-.61-.2-.74-.73-.85-1.27,1.23.35.89-1.09,1.69-1.51,1.49-.8.28-2.86,1.12-4.17l-1.67.41a3.27,3.27,0,0,1-.45,0c0-.1-.05-.21,0-.28C31.47,87.6,30.8,86.41,28.92,86.18ZM51.64,82l-.31-.37a.89.89,0,0,0-.08.31,1.28,1.28,0,0,0,.16.27ZM31.06,85c-.08.16-.17.25-.16.34s.13.14.2.21.15-.17.16-.25S31.16,85.17,31.06,85Zm.12,9.37c.06,0,.14.09.19.07a.2.2,0,0,0,.07-.18s-.13-.09-.17-.08S31.21,94.33,31.18,94.4Zm8.62,15,0,.1s.08,0,.09,0,0-.06,0-.09Z" fill="#231f20"/><path d="M100.25,86.68a5.81,5.81,0,0,1-5-.29c-3.46-1.53-5.91.84-8.68,2.42-2.18,1.24-1.68,4.39-4.47,5.08-2.07.51-.11.82.26,1.2s1,.53.81,1.18c-.59,1.7.58,1.49,1.56,1.51-.89,1.31-2.34,2-2.85,3.84-1.45,5.18-2.2,10.25-.25,15.45.53,1.42.88,2.91,1.31,4.36-1.62-.11-3.34.61-4.81-.67-.25-.22-.72-.44-.8.17a.8.8,0,0,1-1.33.6c-3-2-4.62-.29-6,2.16-1.26-6.17-3.21-12.3-1.33-18.69a6.36,6.36,0,0,1,.88-2.21c3.37-4.08,2.65-9.34,4.14-14,.73-2.25,1.31-4.82,2.79-6.5s2.86-4.24,5.33-5.19a3.21,3.21,0,0,1,2,.24c.67.25.09.82.08,1.25-.08,2.18-1.69,3.54-2.79,5.17-.75,1.09.2,6.07,1.21,6.79.69.49.95.11,1.18-.35.69-1.4,1.73-2.6,1.75-4.35,0-1.52,3.86-4.39,5.4-4.31.22,0,.58.11.63.26,1.22,3.15,1.41-.08,1.88-.38,1-.66,2.08-1.6,3.27-1.37a4.69,4.69,0,0,1,3.73,3A5.33,5.33,0,0,1,100.25,86.68Z" fill="#231f20"/><path d="M61.94,84.28c.05-1.2-2.33-2.17-.33-3.66.19-.15-.23-2.06-1.45-1.87-2.11.33-2.37-1.82-3.73-2.52a3,3,0,0,1-1.53-3.59c.29-1.41-1.08-.66-1.7-.25-1,.64-1.73,1.56-2.64-.15-.19-.36-1.39-.13-2.1-.3-1.86-.43-3.55-1.06-5.65-.31-1.5.53-3.23-.91-5-1.08-1-.1-.31-1.6-.47-2.44-.3-1.58-1.42-1.16-1.9-.71-1,.93-2.42,1.8-2.11,3.48.22,1.15-.79.49-1.11.76A7.19,7.19,0,0,1,28.9,73c-.73.13-1-.71-1.1-1.43,0-.17-.22-.31-.33-.46-.24.2-.66.37-.69.59-.12,1.07-1.77.51-1.74,1.68-.8-1.4-2.07.15-3.05-.49a5,5,0,0,0-1.65-.37c2.74-4.23,6.84-6.29,11.62-7.18,5-.94,9.77-2.92,14.94-2.74a11.7,11.7,0,0,1,5.19,1.06c2.26,1.18,4.62.37,6.92,0,6-.85,11.94.23,17.91.57,1.39.08,2.78.08,4.17.15.69,0,1.62-.07,1.8.78a2.32,2.32,0,0,1-1,2.48c-3.13,2.43-6.71,2.26-10.33,2.11-.43,0-.87-.1-1.31-.08-1.21.08-2.85-.12-3.24,1.11-.17.53,1.82.39,2.78.71s1.9.41,2.2,1.51a3.15,3.15,0,0,1-1,3.47C68.24,79.41,63.74,80.29,61.94,84.28Z" fill="#231f20"/><path d="M61,6.29l-1-.17C60.43,6,60.79,5.8,61,6.29Z" fill="#231f20"/><path d="M103.27,73.51l.34.23Z" fill="#231f20"/><polygon points="49.23 6.97 49.18 6.99 49.18 6.94 49.23 6.92 49.23 6.97" fill="#231f20"/><path d="M99.83,69.75a.08.08,0,0,1,0,.12l0-.08Z" fill="#231f20"/><path d="M139.78,26l0,.1-.15,0a.2.2,0,0,1,0-.11Z" fill="#231f20"/><path d="M103.92,73.73l.21-.51.18.22-.4.28Z" fill="#231f20"/><path d="M173.23,86.32c-2.23-3.69-4.43-7.41-8.58-9.31-1.46-.67-3-1.85-4.43-1.76-3,.19-4.77-2.17-7.24-3s-4.59-3.09-7.51-3.22c.12.81,1.75.35,1.35,1.61h0a6.79,6.79,0,0,1,3.37,3.76c.15.44.53.72.66,1,.86,2.11,3.83,2,4.45,4.56.3,1.24,1.89,2.27,3,3.19,1.42,1.11.26,3.91,3,4.17,2.08.2,3,2.52,5,3.1.5.15.63.4.84.93.85,2.07,2.56,3.49,4.23,4.91,0-.57-.14-1.25.1-1.69,1.32-2.37.44-5.25,1.83-7.59A.84.84,0,0,0,173.23,86.32Z" fill="#231f20"/><path d="M102.12,72.7c-.2-2.54-.17-2.53-2.15-2.32-.1,0-.23-.24-.34-.37A10.72,10.72,0,0,0,95.26,70a2,2,0,0,0-1.78,2.27c.15,1,.94,1.47,2.09,1.82,2.7.81,5.09-.35,7.62-.61C102.82,73.19,102.14,73,102.12,72.7Z" fill="#231f20"/><path d="M143.71,104.41v0h0c.07-.48-.76-1.51.53-1.24s1.41-.61,1.63-1.15.42-1.88,0-2.23c-1.33-1.25-1.87-2.28-.46-3.86.32-.35-.05-1.34-.12-2,0,0-.12-.06-.19-.1-.08.48-.17,1-.23,1.44-.22,1.57-2.16,2-2.32,3.64-.19-.1-.36-.27-.55-.28-.48,0-1.2-.22-1.4,0-.64.78.49.54.63.88a2.65,2.65,0,0,1,.22,1.11c0,.3-.36.38-.6.54-1.15.82-1-.46-1.49-.78-.25.64-.5,1.29-.76,1.94-.16.4-.33.81-.49,1.22,0-.49,0-1,.05-1.46s0-.87.05-1.3a.88.88,0,0,0-.26.09c-1.19,1.13-2.4,2.16-4.21,1.38-.16.61-1.18-.21-1.26.9a6.08,6.08,0,0,0,.4,2,3.12,3.12,0,0,0-.8.14c-.37.15-.37.49,0,.56.57.12,1.27,1.46,1.8-.25.16-.5,1.29-1.51,2.38-.08.34.44-1.27,2.54,1,1.46a.58.58,0,0,1,0,.23c-.72,1.58,1.4,1.73,1.47,2.91.13,0,.39-.12.38-.16C138.88,106.65,143.46,107.31,143.71,104.41Z" fill="#231f20"/><path d="M149.87,109.31c-1.42-.46-2.92-1.08-4.48-.65-.35.09-.5.78-1,.21-.38-.41-1.25-.46-.91-1.33-.17.14-.46.3-.44.41.45,2.11-.46,2.74-2.43,2.31-.1,0-.42.42-.4.44.46.51.95,1,1.45,1.46,0,0,.35-.13.34-.16-.4-1.56,1.32.32,1.2-.74.19.27.37.55.57.81a2.32,2.32,0,0,0,2.2.7c.36,0,.34-1-.34-1.49-.24-.17,0-.93,0-1.42a3.23,3.23,0,0,0,.7.64c.8.39,1.44,1.87,2.53.43.13-.18-.22-.74.35-.62s.51.43.23.83-.1.59.31.7c.25.06.62,0,.43-.26C149.59,110.8,150.77,109.6,149.87,109.31Z" fill="#231f20"/><path d="M143.49,95.88l.72-.94c-.09-.63-.05-1.19-.61-1.21-.32,0-.93.1-.81.63A6.71,6.71,0,0,0,143.49,95.88Z" fill="#231f20"/><path d="M144.63,108.2l.63-.57-.56-.49a2.59,2.59,0,0,0-.4.65C144.28,107.89,144.52,108.06,144.63,108.2Z" fill="#231f20"/><path d="M145.81,93c.13,0,.3-.14.6-.3-.27-.15-.4-.29-.55-.3s-.24.13-.36.2C145.6,92.78,145.68,93,145.81,93Z" fill="#231f20"/><path d="M142.33,109c0,.08.08.18.15.34.1-.13.21-.22.21-.3s-.1-.17-.16-.26C142.46,108.9,142.34,109,142.33,109Z" fill="#231f20"/><path d="M141.84,107.65c0-.06.09-.13.07-.18s-.11-.06-.17-.08-.09.13-.07.18S141.78,107.63,141.84,107.65Z" fill="#231f20"/><path d="M143.49,107.48l0,0a.06.06,0,0,0,0,0l0,0Z" fill="#231f20"/><path d="M143.68,107.16l-.19.32.33-.18Z" fill="#231f20"/><path d="M170.17,96.37l.29.21a1.17,1.17,0,0,0,.14-.27s-.13-.12-.17-.1A.8.8,0,0,0,170.17,96.37Z" fill="#231f20"/><path d="M143.88,104.65l-.16-.22.06.27Z" fill="#231f20"/><path d="M139.29,100.28l.09,0h0v0Z" fill="#231f20"/><path d="M146.82,70.61Z" fill="#231f20"/><path d="M74.49,34.08l-.14.36a1.4,1.4,0,0,1-.26-.34c0-.07.06-.18.1-.28Z" fill="#231f20"/><path d="M59,33.22l.23.25c-.08.07-.15.18-.23.18s-.16-.12-.24-.18Z" fill="#231f20"/><polygon points="39.15 43.8 39.07 43.8 39.11 43.71 39.15 43.8" fill="#231f20"/><polygon points="63.19 53.12 63.24 53.06 63.19 53.12 63.19 53.12" fill="#231f20"/><path d="M62.05,27a9.83,9.83,0,0,1-1,.53c-.39.13-.53-.15-.46-.44s.26-.54.41-.54S61.51,26.79,62.05,27Z" fill="#231f20"/><path d="M70.16,28.11l.71.14c0-.18,0-.36-.05-.55.51.23.77.76.38,1.07S70.37,28.59,70.16,28.11Z" fill="#231f20"/><path d="M76.66,31.77l-.2.26a2.06,2.06,0,0,1-.23-.37c0-.05.11-.15.17-.22Z" fill="#231f20"/><polygon points="63.19 53.12 63.19 53.12 63.19 53.12 63.19 53.12" fill="#231f20"/><path d="M83,41.42s.15-.12.14-.17c-.16-1.35-.3-2.69-.52-4,0-.14-.48-.21-.72-.33-1.49-.7-2.66-1.4-.11-2.32.51-.18.89-.8.32-1.24a1.19,1.19,0,0,1-.15-1.84c1.7-2.24-2.48-2.87-1.27-4.9-1.7-.84-3-2.73-4.89-2.75-1,0-2.07,1.53-3.36.28-.48,1.07-1.55.89-2.42,1.15.27.81.54,1.62.82,2.43.51.23.77.76.38,1.07s-.83-.18-1-.66A.31.31,0,0,0,70,28l0,0c-1.88-.74-2.32-3.18-4.46-3.72-.47-.11-.57-1.34-.16-1.7a6,6,0,0,1,2.47-1.27c.71-.18.83.69,1.12,1.17,1.5,1.07,2.17-.91,3.37-.92-.19-.63-.43-1.25-.56-1.89-.4-2-.53-3.91,1.44-5.25.26-.17.61-.31.26-.72s-.68-.47-1-.1c-1.36,1.51-2,.43-2.46-.75-.69-1.85-1.79-3.27-3.84-3.41-.83-.06-1.16-.05-1.33-1-.24-1.2-.9-2-2.32-1.21-.34.17-.94.17-.82-.58L61,6.29l-1-.17c-.74.16-1.47.39-2.23.48C55,6.92,52.16,8.21,49.23,7l0,0v0l-.43-.27a3.23,3.23,0,0,0-3.91-.54,3.48,3.48,0,0,1-3.35.38c-3.22-1.62-6.34-1.21-9.68-.46-3.67.83-6.06,3.66-5,6.68,2.12,5.94,4.06,12,7.35,17.39a2.11,2.11,0,0,1,0,2.28c-1.89,4.13-.63,10,2.48,13.43,4.63,5,10.62,7.39,17.06,8.55,5.69,1,11.4,1.73,16.66,4.37a8.9,8.9,0,0,0,7,.44c1.64-.54,3.16-1.49,3.09-3.53s-1.45-2.59-3.2-2.85c-.94-.14-2.56-.7-1.87-1.66,1.53-2.13,1.07-5,2.85-6.88a3.9,3.9,0,0,0-.86.25c-1.7,1-1.83,3-2.65,4.5a12.76,12.76,0,0,0-.87,4.11c0,.27.95.48.41.83s-.66,1.47-1.78,1c-.27-.1-1.3-.62-1.39.51a4.05,4.05,0,0,0,.7-.07c.63-.18,1,.56.76.57a56.58,56.58,0,0,1-6.37-.29,4.15,4.15,0,0,1,0-.76c0-.47-.15-.59-.66-.48a1.84,1.84,0,0,1-2.31-1.36c-1.27.4-2.67,1.31-3.85.67a5.46,5.46,0,0,0-3.82-.43c-.06-.17-.13-.33-.2-.5-1.93,1.14-2.41.11-2.51-1.62A1.34,1.34,0,0,0,51.75,51a3.15,3.15,0,0,1-3.46.38c-1.16-.54-2.18-2.08-3.81-1,.23-2-2.22-2.43-2.58-4.1-.25-1.18-1.55-1.27-1.8-.82-.73,1.33-1,.44-1.49,0-1.12-1-.87-2.25-.51-3.42.1-.34.77-.56.45-1.13s-.74-.4-1.24-.37-1.11.31-1.39-.31c-.12-.28-.06-1,.08-1,1.5-.56.84-1.15.14-1.88-.2-.21-.06-.74-.09-1.12,0-.17.23-.54-.25-.4-.23.06-.35.93-.55.29s-1.14-1.13-.21-1.87a3.64,3.64,0,0,0,1.08-2.79c.18-1.93-1.29-3.79-.2-5.74.3-.54,0-.65-.5-.93-1.36-.78-.8-2.41-1.3-3.6-.06-.15.31-.47.47-.71-.29,0-.59.05-.88.09-.45.07-1.1.37-1.26-.17a1.36,1.36,0,0,1,.61-1.57c.47-.25,1,.25,1.37.36,1,.28,2.6-.68,2.82,1.44A2.94,2.94,0,0,0,39,22.6c1.86.39,2.43,1,1.84,2.85a2.32,2.32,0,0,0,0,.65c.19-.12.37-.25.57-.35s0-1,.67-.72c.28.13.43.62.55,1,.44,1.3.85,2,1.29,0,.76.25.84,2,2.17,1,.11-.1.11-.38.1-.57,0-.5.09-1,.66-.88s.24.64.23,1-.37.75.19.88.54-.38.62-.76a2.54,2.54,0,0,1,.33-.71,2.64,2.64,0,0,1,.29.11c-1.14,2,1.72,1.85,1.78,3.25,0,.36.43.95.77.63.68-.65,1.13.15,1.67.07-.12,1.1,1.37,1.52,1.09,2.75-.24,1,.29,2.81.73,2.6,2-1,1,.7,1.24,1.2s.4,1,1,1.1c.1,0,.34-.13.33-.17-.49-2.63,1.5-.51,2.11-1,0,0,.56.15.62-.18a2,2,0,0,0-.08-1.11c-.07-.18-.56-.41-.65-.34-.91.67-.83,0-.84-.57A.64.64,0,0,0,58,33.9c-.29.16-.69.85-.86.17a3.72,3.72,0,0,1,.39-2.13c.25-.6.64.12,1,.11a3.65,3.65,0,0,1,.94.22,5,5,0,0,1-.35-.83c-.29-1.21-1.06-2.24-.91-3.68a11.76,11.76,0,0,1,.18-2.34c.06-.19-.07-.43-.11-.65a4,4,0,0,1,1,0c.12,0,.24.39.23.59-.08,1.08-.28,2.16-.29,3.25a13.87,13.87,0,0,0,.35,2.27,18.54,18.54,0,0,0,1-1.81c.43-1,1.09-1,1.9-.51A5,5,0,0,1,63,29a2.65,2.65,0,0,0,.1-.87c-.1-.42-.3-.83.36-.85.39,0,1,.16.84.62-.3,1.23.83,2,.82,3.13,0,.22.07.55.41.24,1-.92,1.42-.75,1.83,1,.68,2.91,2.66-.35,3.69.82.09-.14.26-.28.27-.42,0-.81,1-.62,1.25-1.22.33.26.85.47,1,.8.28.86-.75.27-.91.69a2.66,2.66,0,0,0-.18,1c0,.16.33.45.46.43.55-.1,0-.59.17-.75.57-.53,1.37-.89,1.17-1.9.45.53,1.09,1,1.3,1.61s-.25,1.25-.78,1.7a3.94,3.94,0,0,1-.48.31c.19.11.55.22.55.33,0,1.68,4.08-.21,2.53,2.85,0,0,.16.22.18.21,2-1.09,2.61.68,3.57,1.69.53.56.73,1-.36,1.27-.67.18-1.73.61-1.65,1.48.1,1,1.13.66,1.62.37C81.6,43,84.4,44.4,83,41.42ZM71.49,57.27,71.34,57h0Zm-.31-.1c0,.07.06.16.11.17s-.08-.11-.11-.17ZM55.44,53.39s.05,0,.08,0l-.1.1S55.42,53.4,55.44,53.39ZM54.9,33.32l0-.13.08,0Zm.2.66a.13.13,0,0,1,0-.09l.07,0,0,.09Zm5.95-6.41c-.39.13-.53-.15-.46-.44s.26-.54.41-.54.51.2,1,.45A9.83,9.83,0,0,1,61.05,27.57ZM73.73,31a1.63,1.63,0,0,1-.11-.17.27.27,0,0,1,.07-.08l.2.11ZM76.46,32a2.06,2.06,0,0,1-.23-.37c0-.05.11-.15.17-.22l.26.33Z" fill="#231f20"/><path d="M58.28,38a3.92,3.92,0,0,0,.3.85c.13-.19.27-.38.44-.64l-.46-.75C58.46,37.6,58.26,37.79,58.28,38Z" fill="#231f20"/><path d="M37.89,39.51c0-.07.1-.15.08-.2a1.07,1.07,0,0,0-.2-.26c-.05.12-.13.21-.11.24A1,1,0,0,0,37.89,39.51Z" fill="#231f20"/><polygon points="70.06 54.55 70 54.53 70.02 54.62 70.06 54.55" fill="#231f20"/><polygon points="71.04 55.57 71.11 55.52 71.11 55.51 71.1 55.51 71.04 55.57" fill="#231f20"/><path d="M73.89,30.81l-.16.14a1.63,1.63,0,0,1-.11-.17.27.27,0,0,1,.07-.08Z" fill="#231f20"/><path d="M54.9,33.32l0-.13.08,0Z" fill="#231f20"/><path d="M55.19,33.87l0,.09-.13,0a.13.13,0,0,1,0-.09Z" fill="#231f20"/><path d="M55.52,53.36l-.1.1s0-.06,0-.07.05,0,.08,0Z" fill="#231f20"/><polygon points="69.94 27.94 69.99 27.9 69.99 27.96 69.94 27.94" fill="#231f20"/><path d="M56.47,94.09c.21,2.57-1.46,4.39-2.35,6.54-.55,1.33-.7,2-2.14,1.87-.22,0-.69.37-.67.54.06.67.44,0,.66.1a.46.46,0,0,1,.14.34c-.5.42-1.34,1.27-1.5,1.16-1.67-1.18-1.66,1.38-2.82,1.2-.12,0-.26.46-.46,0-.92-2.21-1.85-.25-2.77,0a1.16,1.16,0,0,0,.09.39c1.38.13.79,1.09.47,1.54-.68,1-.66-.29-1-.47-.85-.49-2.35.16-2.58-1.42-.18.11-.54.24-.53.33.2,2-2.93,2.1-2.38,4.26-2.6-.15-1.73,2.59-3,3.54-.49.38,1.19,1.06-.24,1-.81,0-.65-1-1.14-1.17a2,2,0,0,0-1.56.14c-2.18,1.44-4.1,1.37-5.83-.71-.38-.46-.82-.84-1.3-.08s-1.63.87-1.83.65c-.93-1-1.52-1.09-2.08.25l-.29-.11c.75-2.76-2.52-1.91-2.5-2.09.28-2.33-1.15-.94-1.92-1.06-.6-.09-1.43-.1-1.15-1.3.21-1-1-.64-1.49-1.07-1,1.44-1.15.49-1.34-.47,0-.22-.3-.4-.46-.6-.05.18-.1.36-.16.54-.11.34.22,1-.3,1-.3,0-.67-.7-.8-1.14-1.09-3.66-2.36-7.28-3.1-11A10.85,10.85,0,0,1,9,89.88a25.06,25.06,0,0,1,1.34-3.32c.25-.39.49-.44.71-.33,1.51.69,1.29-.14,1.06-1.12-.1-.47-.16-1.32,0-1.4.71-.32.34.59.68.79a1.57,1.57,0,0,0,1.65.27c.68-.34.36-.8.37-1.31s-.89-1.11-.05-1.07c1.41.08,1.85-2.13,3.49-1.27.22.12,1-.67,1.13-.56,1.35,1,1.43-1,2.37-.94.28,0,.64,0,.82.13s.15.86.66.56c.75-.44-.17-.53-.23-.81-.14-.62.52-.6.81-.85s.65.14.51.35c-.8,1.16,2.15,1.79.4,3.06-.33.24-1.1-.41-.9.32.1.36,1.42.81,1.54.67,1-1.12.72.21,1.06.39s.61,2,1.57.43c.08-.12.34-.13.51-.19,0,.18.12.43,0,.53-.62.81-.17,1.4.36,2l-.58.25.15.16.42-.42c1.88.23,2.55,1.42,1.69,3,0,.07,0,.18,0,.28a3.27,3.27,0,0,0,.45,0L32.75,89c-.84,1.31.37,3.37-1.12,4.17-.8.42-.46,1.86-1.69,1.51.11.54.24,1.07.85,1.27,0-.88.81-.63,1.26-.75,1.9-.5.64-2.1.78-3,.23-1.43,1.49-1.55,2-2.5.25-.48.77-.52.33-1.32a1.15,1.15,0,0,1,1.17-1.52A1.58,1.58,0,0,0,38,85.52a2.23,2.23,0,0,0-.4-2.45c-.09-.08-.23-.1-.31-.18a.55.55,0,0,1,.23-.86c1.64.48.85-2.39,2.47-1.78.34.12.85.1.8,0-.62-1.41,2.43,1,1.13-1.1a1.27,1.27,0,0,1,.16-.92c.55,0,.69.42.72.88s.16,1.58.72,1.39c1.06-.36-.48-.69-.23-1.2s-.56-.93,0-1.38c.3.45.63.88.9,1.34.18.31-.13,1.17.29,1,.6-.3,1.65-.68,1.23-1.84a2.66,2.66,0,0,1-.07-.75c.29.07.73,0,.84.22.74,1.17,2,1.29,3.13,1.56l.22,0c-.66,1.06.09,1.42.62,2.29,1,1.6-.27,3.86.45,5.85.33.92-.28,2.73,1.52,1.82,1.13-.57.74.4,1.09.55a2.27,2.27,0,0,1-.14.51c-2.59-.42-1.56,2.77-3.24,3.27-.14,0-.3.7-.2.79.47.42.45-.09.53-.36,1.24,1.14,2.24-2.69,3.67-.14.36.65,1.53-.75,2.31.07Zm-3.14,1a2.87,2.87,0,0,0-.71,0,7.47,7.47,0,0,0-.79.29c.23.12.46.33.68.33S52.9,95.37,53.33,95.05Zm-.15-1.66c-.1.16-.21.25-.23.37s.12.15.19.23a1.5,1.5,0,0,0,.29-.27S53.31,93.56,53.18,93.39Zm-19-1.16C34,92.12,34,92,33.88,92s-.18.07-.27.12c.06.08.11.2.18.22S34,92.29,34.14,92.23ZM47.79,79.81c0,.06-.09.14-.07.19s.12.06.18.08S48,80,48,79.9,47.86,79.84,47.79,79.81Zm3.83,14.8,0-.09-.08,0a.32.32,0,0,0,0,.09Z" fill="#231f20"/><path d="M51.64,82l-.23.21a1.28,1.28,0,0,1-.16-.27.89.89,0,0,1,.08-.31Z" fill="#231f20"/><path d="M31.06,85c.1.14.2.22.2.3s-.1.17-.16.25-.19-.13-.2-.21S31,85.19,31.06,85Z" fill="#231f20"/><path d="M56.49,94.1l.16-.37.19.18-.37.18Z" fill="#231f20"/><path d="M31.18,94.39c0-.06,0-.16.09-.18s.16,0,.17.08a.2.2,0,0,1-.07.18C31.32,94.49,31.24,94.43,31.18,94.39Z" fill="#231f20"/><path d="M39.8,109.36l.08,0s0,.07,0,.09-.06,0-.09,0Z" fill="#231f20"/><path d="M151.1,29.46l.45-.86c-.31.08-.75.07-.89.27S150.77,29.39,151.1,29.46Z" fill="#231f20"/><path d="M152.23,16.91c-.08,0-.1-.2-.13-.32-.66-2.89-1.4-5.76-1.95-8.68s-3.77-5.4-5.55-4c-2.76,2.23-5.91.68-7.79-.26a8.53,8.53,0,0,0-8.07-.16c-6.93,3.2-14.06,4.63-21.64,3.1l-.26.17s0,0-.08,0l.27-.16-1.36-.16a13.29,13.29,0,0,1-1.13,1.94c-.35.42-.42.79-.13,1.15a5.71,5.71,0,0,0,1,.81c.16-.35.32-.69.49-1a4,4,0,0,1,.3-.49c.06.18.1.37.18.55.55,1.24,2.24,2.32,2.74,1.77,1.4-1.54,2.5-.18,3.5.06a9.58,9.58,0,0,1,3.73,2.1c.85.71,1.12,2.05,2.32,2.5-.89,1.75,0,3,1.16,4.17,1.43,1.45,3.61,2.28,3.82,4.71.68-.33.49,1.93,1.83.52.42-.45,3.23-1,3.31.83.06,1.3.87,2.07,1,3.16l.48.34c.64-.79,1.14,1.14,1.5.19a1.65,1.65,0,0,0-1.05-2.3c-.29-.11.19-1.95-.37-2.92.56,1.07,1.68,0,2.25.54a2.15,2.15,0,0,0,2.37.46c.84-.33.37-.92-.18-1.3.17-.19.31-.45.52-.56s.4.05.6.08c-.2,1.08,1,.91,1.36,1.52.13.23.63.51.75.43.43-.28-.17-.53-.14-.75.11-.66-.24-1.47.5-2,.1-.06.46.05.46.06-.13,1.94.54,1.28,1.27.42-.15.4-.51,1-.39,1.13.56.53.52-.42.91-.49s.4.22.33.49c-.25.84-.4,1.9.55,2.11.42.09,1.12-1.11,1.67-1.73.08-.09.06-.26.09-.4a2.85,2.85,0,0,0,.16.3c1,1.41,3.36.09,4,2.08l.32-.33.6-.59c.1.43.67.62.5,1.24-.39,1.43.8,1.25,1.35,1a1.49,1.49,0,0,1,1.5.1,8,8,0,0,0,1.07-4.79C152.74,21.34,156,18.74,152.23,16.91Zm-16.54-5.46a7.31,7.31,0,0,0-1.63.57c-.78.49-1.69,1.67-2.39,1.06-1.24-1.09-.57-2.62.25-3.74a3.39,3.39,0,0,1,5.6.85C138.14,11.89,136.61,11.46,135.69,11.45Zm6.68,13.63s0-.06,0-.09a.91.91,0,0,1,.07-.14l0,.09A.91.91,0,0,1,142.37,25.08Z" fill="#231f20"/><path d="M126.68,32.13c-.28,1.55-2.71,1.31-2.48,3.17,3.62,1.05,3.57-1.82,4.2-3.95C127.71,31.37,126.81,31.41,126.68,32.13Z" fill="#231f20"/><path d="M142.44,24.94a.91.91,0,0,1-.07.14s0-.06,0-.09a.91.91,0,0,1,.07-.14A.36.36,0,0,1,142.44,24.94Z" fill="#231f20"/><path d="M107.1,6.63l-.26.17s0,0-.08,0l.27-.16Z" fill="#231f20"/><polygon points="140.11 23.41 140.15 23.36 140.1 23.4 140.11 23.41" fill="#231f20"/><path d="M72.3,131.24l.13-.51.24.18-.38.32Z" fill="#231f20"/><path d="M73.36,142.28l.14-.13a1.19,1.19,0,0,1,.09.15s0,.07-.06.07Z" fill="#231f20"/><path d="M53.33,95.05c-.43.32-.62.57-.82.58s-.45-.21-.68-.33a7.47,7.47,0,0,1,.79-.29A2.87,2.87,0,0,1,53.33,95.05Z" fill="#231f20"/><path d="M53.18,93.39c.13.17.27.29.25.33a1.5,1.5,0,0,1-.29.27c-.07-.08-.2-.17-.19-.23S53.08,93.55,53.18,93.39Z" fill="#231f20"/><path d="M34.14,92.23c-.16.06-.27.14-.35.12s-.12-.14-.18-.22c.09,0,.19-.13.27-.12S34,92.12,34.14,92.23Z" fill="#231f20"/><path d="M28.92,86.18l-.42.42-.15-.16.58-.25Z" fill="#231f20"/><path d="M47.79,79.81c.07,0,.17,0,.18.09s0,.12-.07.18-.16,0-.18-.08S47.76,79.87,47.79,79.81Z" fill="#231f20"/><path d="M51.62,94.61l-.07,0a.32.32,0,0,1,0-.09l.08,0Z" fill="#231f20"/><path d="M110.17,113c0-4.75-2.88-7.93-5-11.59l-.8.19c-.36.1-1.13,2.89-.83,3,1.92.85,1,3.08,2.06,4.34.21.23-.21.45-.61.41-.16,0-.35.32-.52.5.14.12.31.36.41.34.84-.22,1.1.17,1.31.93s-.59.72-.87.88c-1.7,1-2.09,2.32-.94,3.61a.7.7,0,0,1,0,1c-.58.93,1,1.67.29,2.65.83.6.75,2,2.31,2.11,1.19.12,1.54,1.69,1.94,2.82.11.32.34.8.22,1-.3.34-.6,0-.9-.21-.11-.08-.49.05-.58.2a.58.58,0,0,0,.16.57c.83.4,1.26,1.41,2.3,1.43.18-1.17.39-2.33.51-3.51C111,120,110.16,116.48,110.17,113Z" fill="#231f20"/><path d="M102.76,152.1c-.59-.14-2.09.09-2.07-1.1,0-1.83-.92-1.12-1.77-.88s-1.21-.63-1.74-1.06c0,0,.23-.43.27-.41,1.53.53.73-1.12,1.34-1.43-.53-.82-1.2-.23-1.81-.18-.5-.83-.93-1.71-2.14-1.7-2.32,0-.61-1.88-1.25-2.68,0,0,.21-.36.25-.34,1.24.43,1.81-.38,2.11-1.31.12-.37-.26-1.28-.48-1.31-1-.11-2.08-.72-2.8.53-.18.29-.54.22-.43,0a5,5,0,0,1,1.08-1.53c.3-.27.6-.85,1.19-.53.23.12.36.7.67.15.07-.13-.14-.49-.3-.66-1.59-1.65-1.44-3.07.46-4.41.41-.29.53-1,.79-1.54a6.29,6.29,0,0,1-1.23,0c-1.11-.26-1.45,1.07-2.33,1.09-.25,0-.53-.74-.87,0-.26.56-.44,1.25,0,1.67s.75.66.3.72-1.2,1.27-1.84.12c-.11.6-.27,1.15-1.08,1-.5.78-.85,1.12-1.59.06s-1.71-2.33-3.6-1.77a1.85,1.85,0,0,1-2.12-1.19c0-.09.14-.32.27-.39a4,4,0,0,0,1.34-5.14c-.61-1-1.06-1.79-2.57-1.74-.87,0-2.94.4-2.52-1.87a7,7,0,0,0-1.43-.15c-.23,0-.43.38-.64.58,2,.41,1.69,1,.13,1.67-.09,0-.1.29-.15.44s-.13.5-.19.76a3.47,3.47,0,0,1-.78-.8c-.15-.28-.17-.71-.57-.57-.22.08-.4.47-.47.75-.41,1.63-.41,1.62-1.59,1-.21-.12-.77.12-1,.36-.77.83-.25,1.87-.31,2.81,0,.78.61.25,1,.26-.15.38-.52.9-.39,1.11.42.66.66,1.26-.07,1.76a1.38,1.38,0,0,1-1.92-.34,1.15,1.15,0,0,0-.71-.27c-.48.73.23,1.35.24,2,0,.12.27.34.32.31,1.24-.55,1.76.66,2.61,1,.11.05.14.26.2.4-.18,0-.39.11-.54.06-2.43-.92.49,2.1-1.24,1.68l.39.43.45.47a3.56,3.56,0,0,1-.65,0c-.54-.08-.51-.1-.38.4a3.52,3.52,0,0,0,3.1,2.94c.13,0,.24.18.36.28a1.43,1.43,0,0,1-.41.17c-1.05.08-1.81.64-1.44,1.65a3.12,3.12,0,0,0,2.71,2.16c.3,0,.43-1,.81-.09.29.68-.14.76-.58.87-.61.17-1.06.54-.92,1.19s.82.53,1.37.45c1.16-.19,1.33.86,1.62,1.53a1.33,1.33,0,0,1-.39,1.71c-.33.25-.91-.53-.89.26s.7.59,1.13.63a13.12,13.12,0,0,0,2,0c.24,0,.59-.28.62.22,0,.31.07.81-.09.91-.44.27-.34-.2-.41-.43,0-.07-.16-.1-.25-.15a1.68,1.68,0,0,0-.17.54c0,1.17,1.38.83,1.84,1.59.19.32.71.26,1.06-.08.18-.19.42-.7.64-.08.14.4.44,1.26-.11,1.22-1.46-.11-.29,1.21-.94,1.44.11.1.23.3.31.28a16.94,16.94,0,0,0,1.76-.5c.22-.07.44-.43.59-.39.51.13.09.39,0,.63-.22.91.5,1,1.09,1.31s.3-.33.51-.37a2.91,2.91,0,0,1,.87-.1c.11,0,.15.39.23.58.21.48-.46.9.14,1.5,1.35,1.35,3.4,0,4.65,1.39,0,0,.17,0,.24,0,1.29-.56,2.11.1,2.84,1.06s1.14,1,2.27.4,1.89-1.15,1.93-2.48c0-.43.55-.33.77-.48A8.44,8.44,0,0,0,101.7,160c.29-.45-.69-.7-.94-1-.9-1.22-2.47-.2-3.33-1.22-.35.29-.68.86-1.05,0h0c-.21-1,.54-1.38,1.12-1.88.21-.16.41-.33.61-.5a2.41,2.41,0,0,1,2.34.53c.88.64,1.91,0,2.81-.34a1.23,1.23,0,0,0,.61-1.63C103.67,153.26,104,152.4,102.76,152.1ZM72.31,131.22l.12-.49.24.18Zm1.22,11.15-.17-.09.14-.13a1.19,1.19,0,0,1,.09.15S73.54,142.37,73.53,142.37Zm9.17,13.1h0a1,1,0,0,0,0-.11A1,1,0,0,1,82.7,155.47Zm4.5-3.2c-.1-.64.29-1.3,1.1-1.06s2.59-1,2.77.7c.11,1.14.29,3.23-1.5,3.36C88.25,155.36,87.25,154.05,87.2,152.27Z" fill="#231f20"/></svg>